<svg width="140" height="140" viewBox="0 0 140 140" fill="none" xmlns="http://www.w3.org/2000/svg">
<path d="M103.5 84L86 74.5L103.5 65L121 74.5L103.5 84Z" fill="#ECEFF5"/>
<path d="M24.5 78.1429L17 74.0714L24.5 70L32 74.0714L24.5 78.1429Z" fill="#ECEFF5"/>
<path d="M113.5 93.1429L106 89.0714L113.5 85L121 89.0714L113.5 93.1429Z" fill="#ECEFF5"/>
<path fill-rule="evenodd" clip-rule="evenodd" d="M47.4984 52.5228C46.643 43.1131 54.052 35 63.5005 35C72.949 35 80.3579 43.1131 79.5025 52.5228L78.1281 67.6419C77.8337 70.8801 76.5031 73.7936 74.4817 76.067L81.4147 83H86.8709C91.5639 83 95.7401 85.9774 97.27 90.4141L103.574 108.696C104.47 111.294 102.54 114 99.7926 114H27.2083C24.4607 114 22.5311 111.294 23.4268 108.696L29.7309 90.4141C31.2608 85.9774 35.437 83 40.13 83H45.5862L52.5192 76.067C50.4978 73.7936 49.1673 70.8801 48.8729 67.6419L47.4984 52.5228ZM54.2532 77.7238L63.5005 109.429L72.7477 77.7238C70.214 79.7781 66.9894 81 63.5005 81C60.0115 81 56.7869 79.7781 54.2532 77.7238ZM61.4146 109.42L52.5134 78.9013L47.0005 84.4142V92.9194L52.8758 88.2191L54.1252 89.7809L47.4853 95.0927L61.4146 109.42ZM45.0005 85H40.13C36.4039 85 33.0759 87.2941 31.7384 90.7471C37.2066 96.4528 40.1911 104.096 40.0344 112H61.1335L45.0005 95.406V85ZM65.8674 112H87.0528C86.8966 104.126 89.8582 96.5102 95.2872 90.8115C93.9663 87.3226 90.6202 85 86.8709 85H82.0005V95.406L65.8674 112ZM80.0005 84.4142L74.4876 78.9013L65.5863 109.42L79.5156 95.0927L72.8758 89.7809L74.1252 88.2191L80.0005 92.9194V84.4142ZM96.0316 92.9578C91.4061 98.1911 88.9041 104.987 89.0532 112H99.7926C101.166 112 102.131 110.647 101.683 109.348L96.0316 92.9578ZM38.0339 112C38.1837 104.956 35.6586 98.1304 30.9935 92.8878L25.3176 109.348C24.8697 110.647 25.8345 112 27.2083 112H38.0339ZM63.5005 37C55.228 37 48.7412 44.1032 49.4902 52.3417L50.8647 67.4608C51.4588 73.9961 56.9382 79 63.5005 79C70.0627 79 75.5422 73.9961 76.1363 67.4608L77.5107 52.3417C78.2597 44.1032 71.7729 37 63.5005 37ZM75.6957 49.0476L76.3052 50.9524C67.9767 53.6175 59.0242 53.6175 50.6957 50.9524L51.3052 49.0476C59.2373 51.5858 67.7637 51.5858 75.6957 49.0476Z" fill="black"/>
</svg>
