<svg width="140" height="140" viewBox="0 0 140 140" fill="none" xmlns="http://www.w3.org/2000/svg">
<path d="M114.5 109L97 99.5L114.5 90L132 99.5L114.5 109Z" fill="#ECEFF5"/>
<path d="M106.5 88.1429L99 84.0714L106.5 80L114 84.0714L106.5 88.1429Z" fill="#ECEFF5"/>
<path d="M29.5 52.1429L22 48.0714L29.5 44L37 48.0714L29.5 52.1429Z" fill="#ECEFF5"/>
<path fill-rule="evenodd" clip-rule="evenodd" d="M50.5004 32.4028L55.2946 38.373C61.2932 45.843 65.4456 54.6178 67.4202 63.9848C72.3972 54.7926 80.0868 47.3387 89.4603 42.6519L92.1277 41.3182L89.9968 70.0843L88.1001 89.9999H89.0004C90.6572 89.9999 92.0004 91.3431 92.0004 92.9999V94.9999C92.0004 97.4189 90.2826 99.4366 88.0004 99.8999V106.1C90.2826 106.563 92.0004 108.581 92.0004 111V113C92.0004 114.657 90.6572 116 89.0004 116H12.0004C10.3435 116 9.00036 114.657 9.00036 113V111C9.00036 108.581 10.7181 106.563 13.0004 106.1V99.8999C10.7181 99.4366 9.00036 97.4189 9.00036 94.9999V92.9999C9.00036 91.3431 10.3435 89.9999 12.0004 89.9999H12.9006L11.0039 70.0843L8.87305 41.3182L11.5405 42.6519C20.9139 47.3387 28.6036 54.7926 33.5805 63.9848C35.5551 54.6178 39.7075 45.843 45.7061 38.373L50.5004 32.4028ZM14.9096 89.9999H31.0004V73.2758L26.273 65.3602C22.8712 59.6642 17.7721 55.195 11.7116 52.5653L12.9968 69.9156L14.9096 89.9999ZM11.5461 50.3309C18.4119 53.0606 24.1946 57.9795 27.9901 64.3347L33.0004 72.724V89.9999H36.0004V72.8395L39.708 61.5794C41.7907 55.2539 45.167 49.4311 49.6219 44.4811L50.5004 43.5051L51.3788 44.4811C55.8338 49.4311 59.21 55.2539 61.2927 61.5794L65.0004 72.8395V89.9999H67.9078V72.724L72.9181 64.3347C76.7311 57.9501 82.5498 53.0151 89.4574 50.2932L89.8728 44.6851C80.6114 49.4441 73.1021 57.0326 68.4412 66.3543L66.5851 70.0664L65.6197 65.1651C63.7785 55.8171 59.7007 47.0541 53.7352 39.6253L50.5004 35.597L47.2655 39.6253C41.3 47.0541 37.2222 55.8171 35.381 65.1651L34.4156 70.0664L32.5595 66.3543C27.8986 57.0326 20.3894 49.4441 11.1279 44.6851L11.5461 50.3309ZM89.2921 52.524C83.1897 55.148 78.0548 59.6343 74.6351 65.3602L69.9078 73.2758V89.9999H86.0911L88.0039 69.9155L89.2921 52.524ZM63.0004 89.9999V73.1603L59.3931 62.2049C57.493 56.4342 54.4696 51.1001 50.5004 46.5085C46.5311 51.1001 43.5077 56.4342 41.6076 62.2049L38.0004 73.1603V89.9999H63.0004ZM15.0004 99.9999V106H26.7581C26.2795 105.285 26.0004 104.425 26.0004 103.5V102.5C26.0004 101.575 26.2795 100.715 26.7581 99.9999H15.0004ZM14.0004 97.9999C12.3435 97.9999 11.0004 96.6568 11.0004 94.9999V92.9999C11.0004 92.4476 11.4481 91.9999 12.0004 91.9999H89.0004C89.5526 91.9999 90.0004 92.4476 90.0004 92.9999V94.9999C90.0004 96.6568 88.6572 97.9999 87.0004 97.9999H14.0004ZM34.2426 99.9999H46.7581C46.2795 100.715 46.0004 101.575 46.0004 102.5V103.5C46.0004 104.425 46.2795 105.285 46.7581 106H34.2426C34.7212 105.285 35.0004 104.425 35.0004 103.5V102.5C35.0004 101.575 34.7212 100.715 34.2426 99.9999ZM54.2426 106C54.7212 105.285 55.0004 104.425 55.0004 103.5V102.5C55.0004 101.575 54.7212 100.715 54.2426 99.9999H66.7581C66.2795 100.715 66.0004 101.575 66.0004 102.5V103.5C66.0004 104.425 66.2795 105.285 66.7581 106H54.2426ZM74.2426 106C74.7212 105.285 75.0004 104.425 75.0004 103.5V102.5C75.0004 101.575 74.7212 100.715 74.2426 99.9999H86.0004V106H74.2426ZM70.5004 106C71.8811 106 73.0004 104.881 73.0004 103.5V102.5C73.0004 101.119 71.8811 99.9999 70.5004 99.9999C69.1196 99.9999 68.0004 101.119 68.0004 102.5V103.5C68.0004 104.881 69.1196 106 70.5004 106ZM14.0004 108C12.3435 108 11.0004 109.343 11.0004 111V113C11.0004 113.552 11.4481 114 12.0004 114H89.0004C89.5526 114 90.0004 113.552 90.0004 113V111C90.0004 109.343 88.6572 108 87.0004 108H14.0004ZM50.5004 106C51.8811 106 53.0004 104.881 53.0004 103.5V102.5C53.0004 101.119 51.8811 99.9999 50.5004 99.9999C49.1196 99.9999 48.0004 101.119 48.0004 102.5V103.5C48.0004 104.881 49.1196 106 50.5004 106ZM30.5004 99.9999C29.1196 99.9999 28.0004 101.119 28.0004 102.5V103.5C28.0004 104.881 29.1196 106 30.5004 106C31.8811 106 33.0004 104.881 33.0004 103.5V102.5C33.0004 101.119 31.8811 99.9999 30.5004 99.9999ZM45.0004 73.4999C45.0004 70.4624 47.4628 67.9999 50.5004 67.9999C53.5379 67.9999 56.0004 70.4624 56.0004 73.4999C56.0004 76.5375 53.5379 78.9999 50.5004 78.9999C47.4628 78.9999 45.0004 76.5375 45.0004 73.4999ZM50.5004 69.9999C48.5674 69.9999 47.0004 71.5669 47.0004 73.4999C47.0004 75.4329 48.5674 76.9999 50.5004 76.9999C52.4333 76.9999 54.0004 75.4329 54.0004 73.4999C54.0004 71.5669 52.4333 69.9999 50.5004 69.9999Z" fill="black"/>
</svg>
