<svg width="140" height="140" viewBox="0 0 140 140" fill="none" xmlns="http://www.w3.org/2000/svg">
<path d="M108.5 101L91 91.5L108.5 82L126 91.5L108.5 101Z" fill="#ECEFF5"/>
<path d="M26.5 115.143L19 111.071L26.5 107L34 111.071L26.5 115.143Z" fill="#ECEFF5"/>
<path d="M97.5 111.143L90 107.071L97.5 103L105 107.071L97.5 111.143Z" fill="#ECEFF5"/>
<path d="M112.5 78.1429L105 74.0714L112.5 70L120 74.0714L112.5 78.1429Z" fill="#ECEFF5"/>
<path fill-rule="evenodd" clip-rule="evenodd" d="M57.4972 31.4272L60.7521 35.3775L57.4973 39.5351L54.2424 35.3776L57.4972 31.4272ZM57.4972 34.5724L56.8075 35.4096L57.4973 36.2906L58.187 35.4096L57.4972 34.5724ZM51.0542 38.9048C51.8573 37.8159 53.2218 37.4587 54.5151 37.4587H54.976L57.4971 40.4091L60.0184 37.4587H60.4793C61.7726 37.4587 63.1371 37.816 63.9403 38.9047C64.7648 40.0223 64.7377 41.5481 64.063 43.27C63.8561 43.7975 63.3822 44.6304 63.0054 45.267C62.8084 45.5997 62.6228 45.9037 62.4867 46.1244C62.486 46.1254 62.4854 46.1264 62.4848 46.1274C62.7973 47.2194 63.5129 48.0008 64.3527 48.5067C64.1848 47.619 64.2838 46.7988 64.729 46.1281C65.3327 45.2187 66.3675 44.8924 67.3345 44.8924H67.7189L69.3257 46.342L70.9326 44.8924H71.317C72.284 44.8924 73.3188 45.2187 73.9225 46.1281C74.5072 47.0088 74.4947 48.1473 74.065 49.358C75.0907 49.2059 75.7594 48.5995 76.0329 47.9041C76.3449 47.1106 76.2137 46.013 75.1489 45.029L74.6811 44.5967L74.8751 43.99C75.2429 42.8401 75.7581 41.8894 76.6194 41.5083C77.5775 41.0844 78.4544 41.5572 78.9919 41.9545C79.5117 42.3389 80.0273 42.885 80.4628 43.3463C80.5001 43.3858 80.5368 43.4248 80.5729 43.4629C81.0796 43.9982 81.471 44.3912 81.8018 44.5984C81.8838 44.6498 82.0879 44.7228 82.4968 44.7963C82.6852 44.8302 82.8881 44.8597 83.111 44.8914L83.1804 44.9012C83.3782 44.9292 83.5909 44.9593 83.7987 44.9938C84.2457 45.0678 84.781 45.1775 85.2372 45.4C85.7155 45.6332 86.2447 46.0641 86.3771 46.8157M80.7397 46.2931C80.1519 45.9248 79.5827 45.3261 79.1204 44.8378L79.051 44.7644C78.5706 44.2566 78.1729 43.8363 77.803 43.5628C77.5772 43.3959 77.4595 43.3557 77.4138 43.3473C77.3857 43.3681 77.322 43.4249 77.2327 43.5606C77.1556 43.6776 77.0703 43.8373 76.9804 44.0505C78.1909 45.4573 78.4701 47.1715 77.8942 48.636C77.2539 50.2642 75.628 51.3946 73.5543 51.3946V50.3734C73.452 50.5396 73.3494 50.6967 73.2601 50.8304C73.1243 51.0337 72.9967 51.2159 72.9032 51.347C72.8564 51.4128 72.8177 51.4662 72.7905 51.5036L72.7586 51.5473L72.7497 51.5594L72.7472 51.5628L72.7464 51.5638C72.7463 51.5639 72.7459 51.5644 71.9423 50.9694L71.1385 50.3744L71.1401 50.3722L71.1467 50.3633L71.1736 50.3265C71.1973 50.2939 71.2319 50.246 71.2744 50.1864C71.3597 50.0667 71.4753 49.9017 71.5969 49.7195C71.8627 49.3215 72.0825 48.9518 72.1504 48.7706C72.5064 47.8219 72.3595 47.3898 72.2563 47.2343C72.1776 47.1158 72.0048 46.9782 71.6704 46.9203L69.3257 49.0355L66.981 46.9203C66.6468 46.9782 66.4739 47.1158 66.3953 47.2343C66.292 47.3898 66.1451 47.8216 66.501 48.7703L66.5014 48.7714C66.5615 48.9319 66.7503 49.2555 66.9971 49.6312L68.2044 51.469L66.0259 51.171C63.9202 50.883 61.0636 49.4226 60.4339 46.1402L60.3594 45.7516L60.5708 45.4173L60.5715 45.4162L60.5851 45.3946L60.6279 45.3265C60.6651 45.2669 60.7189 45.1805 60.7847 45.0739C60.9165 44.8605 61.0954 44.5674 61.2843 44.2482C61.6792 43.5812 62.0633 42.8907 62.2009 42.5404C62.7629 41.1061 62.5644 40.4086 62.3309 40.092C62.1157 39.8004 61.6686 39.5498 60.9229 39.4788L57.497 43.4876L54.0714 39.4788C53.3257 39.5498 52.8787 39.8004 52.6638 40.0919C52.4304 40.4082 52.232 41.1056 52.7946 42.54L52.7951 42.5411C52.9316 42.8905 53.3155 43.5807 53.7107 44.2481C53.8998 44.5673 54.0787 44.8603 54.2105 45.0738C54.2764 45.1804 54.3303 45.2668 54.3675 45.3263L54.4103 45.3944L54.4212 45.4118L54.4239 45.4159L54.4245 45.4169L54.6364 45.7517L54.5616 46.1407C53.9305 49.4228 51.0743 50.8832 48.9685 51.1711L46.7815 51.4702L47.9989 49.6289C48.2442 49.2578 48.433 48.9322 48.4931 48.7714C48.8486 47.8221 48.7021 47.3897 48.5988 47.234C48.5205 47.1159 48.348 46.9783 48.0133 46.9204L45.6686 49.0357L43.324 46.9204C42.9894 46.9783 42.8169 47.1159 42.7385 47.234C42.6353 47.3897 42.4886 47.8217 42.8442 48.7709C42.9121 48.9518 43.1318 49.3212 43.3979 49.719C43.5196 49.9011 43.6353 50.066 43.7207 50.1857C43.7633 50.2453 43.798 50.2932 43.8217 50.3258L43.8486 50.3626L43.8552 50.3715L43.8566 50.3734L43.0535 50.9692C42.2503 51.5649 42.2502 51.5649 42.2502 51.5648L42.2465 51.5598L42.2376 51.5478L42.2056 51.5041C42.1784 51.4667 42.1397 51.4133 42.0928 51.3475C41.9992 51.2164 41.8714 51.0342 41.7354 50.8309C41.6459 50.697 41.543 50.5397 41.4403 50.3732V51.3946C39.367 51.3946 37.7417 50.2639 37.1015 48.6359C36.5256 47.1716 36.8043 45.4575 38.0143 44.0506C37.9243 43.8373 37.839 43.6777 37.762 43.5606C37.6726 43.4249 37.6089 43.3681 37.5808 43.3473C37.5351 43.3557 37.4175 43.3959 37.1917 43.5628C36.8217 43.8363 36.4241 44.2566 35.9436 44.7644C35.9207 44.7887 35.8976 44.8131 35.8742 44.8378C35.412 45.3261 34.8428 45.9247 34.2551 46.293M37.604 43.3461C37.6037 43.3467 37.5995 43.3471 37.5919 43.3457C37.6004 43.3448 37.6042 43.3455 37.604 43.3461ZM40.9295 49.3579C39.9047 49.2057 39.2362 48.5995 38.9627 47.904C38.6506 47.1102 38.7818 46.0126 39.8459 45.0289L40.3135 44.5966L40.1195 43.99C39.7518 42.8401 39.2365 41.8894 38.3752 41.5083C37.4171 41.0844 36.5402 41.5572 36.0027 41.9545C35.4829 42.3389 34.9673 42.885 34.5319 43.3463C34.4946 43.3858 34.4578 43.4248 34.4217 43.4629C33.915 43.9982 33.5236 44.3912 33.1929 44.5984C33.111 44.6498 32.9068 44.7229 32.4979 44.7964C32.3095 44.8302 32.1065 44.8598 31.8837 44.8914C31.8607 44.8947 31.8375 44.898 31.8142 44.9013C31.6164 44.9293 31.4038 44.9594 31.196 44.9938C30.749 45.0678 30.2137 45.1776 29.7575 45.4C29.2791 45.6333 28.7497 46.0643 28.6174 46.8164M40.9295 49.3579C40.5005 48.1476 40.4877 47.0093 41.0718 46.1286C41.6752 45.2187 42.71 44.8925 43.6775 44.8925H44.0619L45.6686 46.3421L47.2753 44.8925H47.6598C48.6273 44.8925 49.6621 45.2187 50.2656 46.1286C50.7104 46.7993 50.809 47.6195 50.6413 48.507C51.4814 48.0012 52.1975 47.2197 52.5107 46.1275C52.5101 46.1266 52.5095 46.1257 52.509 46.1248C52.3727 45.9041 52.187 45.6 51.9899 45.2673C51.6129 44.6308 51.1388 43.7976 50.9323 43.2692C50.2574 41.5478 50.2299 40.0223 51.0542 38.9048M77.3907 43.3461C77.3905 43.3455 77.3943 43.3448 77.4027 43.3457C77.3951 43.3471 77.3909 43.3467 77.3907 43.3461ZM64.6281 49.4718C64.628 49.4717 64.6282 49.472 64.6281 49.4718L65.5648 49.1216L64.6285 49.4729C64.6284 49.4727 64.6282 49.472 64.6281 49.4718ZM45.6679 39.3579L48.3733 42.6388L45.668 45.8457L42.9655 42.6388L45.6679 39.3579ZM69.3255 39.3581L72.0307 42.6391L69.3255 45.8458L66.623 42.6391L69.3255 39.3581ZM45.6688 42.5026L45.5687 42.6242L45.6688 42.743L45.769 42.6242L45.6688 42.5026ZM69.3263 42.5029L69.2262 42.6244L69.3263 42.7432L69.4264 42.6244L69.3263 42.5029ZM30.5796 47.2266C30.5771 47.2999 30.6023 47.3704 30.7049 47.5064C30.7854 47.6129 30.8907 47.7268 31.0453 47.8888C31.058 47.9021 31.0711 47.9157 31.0844 47.9296C31.2213 48.0728 31.3905 48.2496 31.552 48.4444C31.922 48.8908 32.2941 49.4793 32.4302 50.2985C32.5641 51.1051 32.4524 52.033 32.0467 53.1434L30.1682 52.457C30.4935 51.5668 30.5188 50.9975 30.4572 50.6262C30.3976 50.2675 30.2416 49.9974 30.0121 49.7207C29.8983 49.5833 29.777 49.4564 29.6322 49.3049C29.6213 49.2935 29.6102 49.2819 29.599 49.2701C29.451 49.1152 29.2686 48.9231 29.1088 48.7115C28.7597 48.2492 28.4741 47.631 28.6174 46.8164M30.5796 47.2266C30.5929 47.2187 30.6107 47.209 30.6341 47.1977C30.8101 47.1118 31.0969 47.0375 31.5227 46.9669C31.7059 46.9366 31.8945 46.9099 32.0956 46.8814C32.1185 46.8781 32.1415 46.8749 32.1647 46.8716C32.3861 46.8402 32.6227 46.806 32.8516 46.7648C33.2773 46.6883 33.8193 46.5662 34.2551 46.293M92.1969 46.218C92.516 46.1729 92.8399 46.2666 93.0859 46.4766L93.095 46.4844C96.2406 49.2355 96.3811 54.4116 93.346 58.2951L91.7702 57.0635C94.0033 54.2061 93.9882 50.8291 92.4876 48.7678C91.5465 50.2425 89.7017 53.0193 87.2928 56.092C84.1933 60.0454 80.0985 64.5691 75.7431 67.4067C76.6165 68.4179 77.1517 69.7119 77.1517 71.1363C77.1517 74.093 74.8752 76.4599 71.9983 76.9705C70.8575 77.1891 69.3678 77.1781 67.8541 76.8498V80.6411C68.3291 80.25 68.8437 79.9473 69.3537 79.7163C70.6032 79.1504 71.8857 78.9826 72.6915 78.9826H73.5382L73.6778 79.8177C74.1678 82.7483 75.0202 84.9873 75.9886 86.1011C77.5545 87.8973 79.9208 87.6856 80.7758 86.7279L82.2677 88.06C80.4578 90.087 76.6784 89.936 74.481 87.4153C73.2733 86.0272 72.4017 83.7051 71.8704 81.0489C71.3603 81.125 70.7604 81.2748 70.1789 81.5382C69.2504 81.9587 68.4317 82.6363 68.022 83.7153C67.7931 84.3222 67.199 84.4856 66.7988 84.4229C66.4015 84.3606 65.8541 84.012 65.8541 83.327V75.691C65.8541 74.8151 66.7145 74.4395 67.3204 74.635L67.3259 74.6368C68.9125 75.1589 70.5503 75.2129 71.6274 75.0051L71.6353 75.0036L71.6433 75.0022C73.6982 74.6401 75.1517 72.9985 75.1517 71.1363C75.1517 70.0588 74.6734 69.0716 73.8686 68.3456C73.1667 67.7113 73.2571 66.588 74.0846 66.0878L74.087 66.0864C74.1865 66.0266 74.2853 65.9655 74.3832 65.9031L74.3858 65.9014C78.5524 63.2657 82.5895 58.8496 85.7188 54.858C88.8344 50.884 90.9865 47.4139 91.3948 46.7436L91.4039 46.7286L91.4136 46.7139C91.5919 46.443 91.8777 46.2631 92.1969 46.218ZM66.1513 83.0079C66.1515 83.0072 66.1517 83.0066 66.152 83.0059L66.1513 83.0079ZM23.6011 46.7463C23.225 46.128 22.4047 46.0472 21.9017 46.4812L21.8958 46.4863C18.7555 49.2383 18.6129 54.4123 21.6484 58.295L23.224 57.0632C20.9908 54.2067 21.0067 50.8295 22.5066 48.7674C23.4481 50.2425 25.2948 53.0222 27.7063 56.0978C30.805 60.0499 34.8977 64.5708 39.2506 67.4069C38.3786 68.418 37.843 69.7123 37.843 71.1363C37.843 74.0931 40.1194 76.46 42.9974 76.9705C44.1377 77.1893 45.6276 77.1781 47.1415 76.8495V80.6422C46.6664 80.2507 46.1515 79.9478 45.6412 79.7166C44.3918 79.1506 43.1093 78.9829 42.303 78.9829H41.4563L41.3167 79.818C40.8266 82.7489 39.9756 84.9876 39.007 86.1012C37.4412 87.8974 35.0736 87.6857 34.2185 86.7281L32.7267 88.0601C34.5366 90.0871 38.3172 89.9361 40.5146 87.4154C41.7227 86.027 42.5932 83.7048 43.1241 81.049C43.6344 81.1252 44.2344 81.275 44.8159 81.5384C45.7445 81.9591 46.5634 82.6371 46.973 83.7172L46.9765 83.7262C47.2096 84.3236 47.797 84.4858 48.1973 84.4229C48.5947 84.3604 49.1415 84.0115 49.1415 83.327V75.691C49.1415 74.804 48.2687 74.4441 47.6753 74.6346L47.6685 74.6368C46.0817 75.1589 44.4442 75.2129 43.3688 75.0052L43.3606 75.0036L43.3525 75.0022C41.2963 74.6402 39.843 72.9985 39.843 71.1363C39.843 70.0595 40.3217 69.0714 41.1248 68.3452C41.8363 67.707 41.7303 66.5852 40.9131 66.0888L40.9061 66.0845C40.8056 66.0247 40.706 65.9636 40.6071 65.9012C36.4433 63.2668 32.4086 58.8538 29.2802 54.8637C26.1667 50.8929 24.0143 47.4239 23.6011 46.7463ZM39.7903 66.8556L39.7858 66.8596C39.7873 66.8583 39.7888 66.8569 39.7903 66.8556ZM21.8942 47.7888C21.8938 47.7881 21.8934 47.7874 21.893 47.7868L21.892 47.7851C21.8927 47.7863 21.8935 47.7875 21.8942 47.7888ZM59.2097 51.8569L60.4452 52.3032C61.5948 52.7185 63.089 52.8854 64.7845 52.9434C65.7822 52.9775 66.7644 52.9739 67.7545 52.9702C68.4838 52.9675 69.2173 52.9648 69.9647 52.9771C71.6384 53.0048 73.3072 53.1101 74.6318 53.5379C75.9927 53.9774 77.1863 54.8328 77.4879 56.4389C77.4879 56.4391 77.4878 56.4387 77.4879 56.4389C77.6154 57.1167 77.5097 57.8772 77.3322 58.4896C77.2403 58.8066 77.1196 59.1176 76.9747 59.3931C76.8373 59.6541 76.6446 59.9482 76.3809 60.1694L75.212 61.1497L74.7794 59.6868C74.7796 59.6876 74.7652 59.6419 74.7247 59.5708C74.6857 59.5023 74.6272 59.4185 74.5432 59.3341C74.3854 59.1751 74.1052 58.9799 73.6004 58.9037C73.6002 58.9036 73.6006 58.9037 73.6004 58.9037C70.5277 58.4418 67.5238 60.5732 65.8892 63.5918C64.2456 66.6271 64.2906 69.9424 66.4998 71.7602L65.2291 73.3046C61.9397 70.5981 62.2803 66.0561 64.1305 62.6394C65.9896 59.2062 69.6773 56.2911 73.8984 56.926C74.573 57.0278 75.0981 57.2581 75.502 57.5382C75.4804 57.6654 75.4503 57.7983 75.4113 57.9328C75.3506 58.142 75.2771 58.3242 75.2047 58.4618C75.1359 58.5926 75.091 58.6395 75.0917 58.6402C75.0918 58.6403 75.0931 58.6392 75.0957 58.637L75.7383 59.4032L76.6972 59.1196C76.5905 58.7587 76.2565 58.0613 75.502 57.5382C75.5511 57.2492 75.5564 56.9896 75.5223 56.8086C75.4076 56.1975 74.9946 55.7568 74.0172 55.4411C73.0034 55.1137 71.6019 55.0044 69.9316 54.9769C69.2815 54.9661 68.5723 54.9682 67.8442 54.9703C66.8006 54.9733 65.7183 54.9765 64.7162 54.9422C63.6938 54.9073 62.6655 54.8333 61.6954 54.6712C61.5054 54.4087 61.3564 54.1539 61.2544 53.9228C61.1203 53.6191 61.0949 53.4193 61.1025 53.3208L60.1055 53.2437L59.7657 54.1842C60.3658 54.401 61.0163 54.5577 61.6954 54.6712C61.7462 54.7414 61.7999 54.8122 61.8565 54.8832C62.4006 55.5662 63.1194 56.1649 63.7668 56.4693L65.1605 57.1244L63.9951 58.131C61.4468 60.3324 59.0302 64.9188 58.5422 70.6478L56.5494 70.6475C56.0628 64.9188 53.6461 60.3324 51.0979 58.131L49.9327 57.1244L51.3262 56.4693C51.9738 56.1649 52.6928 55.566 53.2371 54.883C53.2937 54.8121 53.3474 54.7413 53.3983 54.6711C54.0771 54.5576 54.7275 54.4009 55.3274 54.1842L54.9876 53.2437L53.9907 53.3218C53.9983 53.4199 53.9732 53.6193 53.8392 53.9229C53.7372 54.1539 53.5882 54.4087 53.3983 54.6711C52.428 54.8333 51.3995 54.9073 50.3769 54.9422C49.3747 54.9765 48.2924 54.9733 47.2487 54.9703C46.5206 54.9682 45.8113 54.9661 45.1612 54.9769C43.4908 55.0044 42.0891 55.1137 41.0751 55.4411C40.0976 55.7567 39.6844 56.1968 39.5693 56.8077C39.5354 56.9892 39.5411 57.2493 39.5906 57.5388C38.8367 58.0617 38.502 58.7587 38.3954 59.1209L39.3547 59.4033L39.9973 58.6371C39.9999 58.6393 40.0012 58.6404 40.0013 58.6403C40.0019 58.6397 39.957 58.5927 39.8881 58.4618C39.8157 58.3241 39.7421 58.1417 39.6813 57.9324C39.6424 57.7983 39.6123 57.6657 39.5906 57.5388C39.9947 57.2584 40.5193 57.028 41.1937 56.9261C45.4148 56.2912 49.1033 59.2062 50.9626 62.6394C52.8129 66.0559 53.154 70.5979 49.8655 73.3045L48.5945 71.7603C50.8031 69.9425 50.8478 66.6272 49.2039 63.5918C47.569 60.573 44.5648 58.4416 41.4919 58.9037C41.4916 58.9038 41.4921 58.9037 41.4919 58.9037C40.9882 58.98 40.708 59.1751 40.5498 59.3343C40.4657 59.4189 40.4071 59.5027 40.3681 59.5711C40.3303 59.6375 40.3154 59.6813 40.3141 59.6854C40.314 59.6857 40.314 59.6855 40.3141 59.6854L39.8826 61.1513L38.712 60.1695C38.4484 59.9483 38.2556 59.6542 38.1182 59.3932C37.9733 59.1177 37.8525 58.8068 37.7606 58.4898C37.5828 57.8774 37.4768 57.117 37.6034 56.4396L37.6036 56.4386C37.9058 54.8326 39.0996 53.9773 40.4606 53.5379C41.7854 53.1101 43.4543 53.0048 45.1282 52.9771C45.8755 52.9648 46.6092 52.9675 47.3384 52.9702C48.3286 52.9739 49.3108 52.9775 50.3085 52.9434C52.0041 52.8854 53.4983 52.7185 54.6479 52.3032L55.8821 51.8573L55.9846 53.1656C56.0275 53.7139 55.8773 54.2581 55.6689 54.7304C55.4557 55.2135 55.151 55.6906 54.8012 56.1295C54.3956 56.6384 53.9012 57.131 53.3632 57.5446C53.0504 57.208 52.7304 56.8983 52.4054 56.6176L51.7517 57.3743L52.1771 58.2793C52.5835 58.0882 52.9842 57.836 53.3632 57.5446C55.0826 59.3943 56.5885 62.0595 57.5463 65.2332C57.0547 66.8614 56.7074 68.6235 56.5494 70.478L57.5458 70.5629L58.5422 70.4783C58.3847 68.6237 58.0376 66.8615 57.5463 65.2332C58.5044 62.0595 60.0104 59.3943 61.7299 57.5445C62.1089 57.836 62.5095 58.0882 62.916 58.2793L63.3414 57.3743L62.6877 56.6176C62.3627 56.8983 62.0427 57.2079 61.7299 57.5445C61.1919 57.1309 60.6977 56.6383 60.2922 56.1294C59.9426 55.6905 59.638 55.2135 59.4247 54.7305C59.2163 54.2583 59.0661 53.7145 59.1084 53.1666L59.2097 51.8569ZM98.259 57.3829C100.028 60.832 98.4928 65.35 95.0729 67.2448L94.1037 65.4953C96.6481 64.0856 97.7208 60.7155 96.4795 58.2958L98.259 57.3829ZM19.921 67.2442C16.5039 65.3493 14.9692 60.8345 16.7345 57.3847L18.5149 58.2958C17.2758 60.7174 18.3489 64.0855 20.8909 65.4951L19.921 67.2442ZM45.4263 63.3965C44.5771 63.1353 43.1599 63.1556 42.245 63.9533L40.9307 62.4458C42.5508 61.0332 44.7761 61.104 46.0143 61.4849L45.4263 63.3965ZM69.0357 61.4849C70.2745 61.1043 72.5002 61.0331 74.1194 62.4462L72.8043 63.9531C71.891 63.1559 70.4742 63.1352 69.623 63.3967L69.0357 61.4849ZM97.0099 72.9028C95.9591 74.2156 94.3757 75.0949 92.4663 75.4086L92.1421 73.4351C93.6347 73.1898 94.7487 72.5273 95.4485 71.653C96.1446 70.7833 96.4834 69.6404 96.3215 68.3195L98.3066 68.0762C98.5296 69.8957 98.0645 71.5853 97.0099 72.9028ZM17.9865 72.9042C16.932 71.5873 16.467 69.8984 16.6889 68.0793L18.6742 68.3215C18.513 69.6429 18.8519 70.7852 19.5477 71.6542C20.2472 72.5278 21.3607 73.1898 22.8536 73.4351L22.5293 75.4086C20.6202 75.0949 19.0371 74.2164 17.9865 72.9042ZM92.2349 80.9273C90.8238 81.6374 89.0826 81.7625 87.5315 81.5526L87.7999 79.5706C89.0998 79.7466 90.3994 79.612 91.3359 79.1408C92.2071 78.7024 92.7963 77.9694 92.826 76.7179L94.8255 76.7654C94.7768 78.8144 93.7114 80.1844 92.2349 80.9273ZM22.7601 80.9278C21.2839 80.1851 20.2185 78.8157 20.1689 76.7676L22.1683 76.7191C22.1987 77.9701 22.7879 78.703 23.659 79.1412C24.5953 79.6123 25.8946 79.7469 27.1946 79.571L27.4628 81.5529C25.9117 81.7629 24.171 81.6377 22.7601 80.9278ZM89.0796 83.6587C87.5839 86.2334 84.3377 86.8593 81.1771 85.3501L82.0389 83.5453C84.5702 84.754 86.5348 84.0578 87.3503 82.6541L89.0796 83.6587ZM33.8184 85.3503C30.6569 86.8592 27.4106 86.2337 25.9147 83.6589L27.6441 82.6542C28.4595 84.0578 30.4242 84.7541 32.957 83.5453L33.8184 85.3503ZM24.7698 87.4528C24.7311 87.9016 24.5984 88.4268 24.279 88.8081L22.7457 87.5239C22.7303 87.5423 22.7238 87.5521 22.723 87.5516C22.7206 87.5503 22.7608 87.4717 22.7772 87.2811C22.7963 87.0593 22.7722 86.78 22.6747 86.4984C22.5331 86.0897 22.2245 85.6331 21.5533 85.3406C21.4871 85.4636 21.3995 85.6266 21.2833 85.8424C20.8093 86.7229 20.8096 86.723 20.8098 86.7232L20.8006 86.7184C20.7898 86.7128 20.7715 86.7036 20.7465 86.6914C20.6963 86.6669 20.6201 86.6311 20.524 86.5903C20.3291 86.5074 20.0667 86.4096 19.7838 86.3405C19.1909 86.1954 18.8264 86.2477 18.6426 86.3727C18.537 86.5463 18.504 86.8835 18.6868 87.445C18.7742 87.7135 18.8894 87.9613 18.9857 88.1454C19.0331 88.236 19.0741 88.3077 19.102 88.3548C19.1158 88.3782 19.1263 88.3953 19.1326 88.4053L19.1377 88.4136C19.1376 88.4133 19.1374 88.4131 18.2987 88.9576C18.0833 89.0975 17.9232 89.2014 17.8042 89.2786C18.1392 89.8725 18.6084 90.1389 19.0384 90.2523C19.3395 90.3318 19.6343 90.3378 19.8675 90.3038C20.0728 90.2738 20.1556 90.2255 20.1573 90.2281C20.1578 90.2289 20.1497 90.2351 20.1345 90.249L21.485 91.7242C21.1213 92.0572 20.6035 92.2174 20.1568 92.2827C19.6712 92.3537 19.1037 92.338 18.5281 92.1861C17.3334 91.8709 16.1478 90.9757 15.627 89.2226L17.0748 88.7925C16.9769 88.5835 16.8733 88.3354 16.785 88.0641C16.5476 87.3348 16.2947 86.041 17.1526 85.0299L17.1917 84.9838L17.2361 84.9428C18.1985 84.0526 19.5069 84.2137 20.259 84.3977C20.5549 84.4701 20.8258 84.5607 21.0513 84.6468L21.3681 83.1931C23.1657 83.5848 24.1603 84.677 24.5645 85.8437C24.7585 86.4038 24.8118 86.9657 24.7698 87.4528ZM71.4413 95.9897C71.685 96.0706 71.9795 96.1534 72.3109 96.2319C72.8853 96.368 73.5198 96.4791 74.0981 96.5427C74.378 96.5735 74.6297 96.5914 74.8462 96.5979C75.3109 95.4853 76.1398 94.5566 77.1845 93.9373L78.2044 95.6577C77.3666 96.1543 76.7697 96.9314 76.5404 97.8184L76.3729 98.4661L75.7103 98.5585C75.19 98.6311 74.5249 98.6017 73.8793 98.5307C73.2158 98.4577 72.5004 98.3321 71.8499 98.1781C71.2119 98.027 70.5838 97.8362 70.1205 97.6173C69.9059 97.516 69.6254 97.3628 69.412 97.1356C69.3009 97.0172 69.1491 96.8169 69.0882 96.5335C69.0194 96.2128 69.0917 95.8991 69.2575 95.6489L69.2671 95.6344L69.2772 95.6203C71.5391 92.4535 71.6091 90.2118 70.9763 88.8926C70.4497 87.7946 69.3025 87.0517 67.8539 86.8807V90.3011C67.8539 92.3544 66.0783 93.8877 64.0579 93.8877H61.0544C60.3171 93.8877 59.6538 94.2597 59.1238 94.7204C58.8663 94.9443 58.6626 95.1702 58.5242 95.3395C58.4556 95.4235 58.4045 95.4918 58.3723 95.5364C58.3562 95.5586 58.345 95.5748 58.3388 95.5839L58.3349 95.5895L58.334 95.5909L58.3334 95.5918L57.497 96.8774L56.6609 95.5921L56.6601 95.5908L56.6595 95.59L56.6553 95.5839C56.6491 95.5747 56.6378 95.5585 56.6218 95.5363C56.5896 95.4917 56.5385 95.4235 56.4699 95.3395C56.3315 95.1701 56.1279 94.9442 55.8704 94.7203C55.3405 94.2597 54.6773 93.8877 53.94 93.8877H50.9362C48.9138 93.8877 47.1419 92.3534 47.1419 90.3011V86.8808C45.693 87.0519 44.5451 87.7949 44.018 88.8931C43.3848 90.2122 43.4544 92.4537 45.7169 95.6203L45.7269 95.6343L45.7365 95.6487C45.9095 95.9094 45.977 96.2349 45.8976 96.5601C45.8286 96.8431 45.6698 97.0395 45.5581 97.1529C45.3408 97.3735 45.0569 97.5241 44.8333 97.6262C44.3518 97.8461 43.6943 98.0404 43.0083 98.1952C41.6482 98.5022 39.8876 98.7176 38.6789 98.5702L38.3278 98.5274L38.0817 98.2733C37.7215 97.9015 37.1893 97.655 36.5753 97.655M57.4971 93.5021C57.594 93.4068 57.6989 93.309 57.8117 93.211C58.5217 92.5937 59.6371 91.8877 61.0544 91.8877H64.0579C65.1238 91.8877 65.8539 91.1055 65.8539 90.3011V84.901L66.8035 84.8531C69.2641 84.729 71.7028 85.7827 72.7796 88.0276C73.7775 90.1079 73.4404 92.8597 71.4413 95.9897M57.4971 93.5021C57.4003 93.4068 57.2954 93.309 57.1826 93.211C56.4726 92.5937 55.3573 91.8877 53.94 91.8877H50.9362C49.8704 91.8877 49.1419 91.1065 49.1419 90.3011V84.9011L48.1922 84.8533C45.7317 84.7292 43.2924 85.7829 42.2149 88.0276C41.2175 90.1058 41.5525 92.8541 43.5465 95.98C43.2769 96.0684 42.9452 96.1591 42.568 96.2443C41.4316 96.5007 40.1176 96.6552 39.2273 96.6104C38.5175 96.0124 37.5872 95.655 36.575 95.655C36.0806 95.6551 35.5898 95.7427 35.126 95.9138L35.818 97.7902C36.0602 97.7009 36.3168 97.6551 36.5753 97.655M81.3271 89.4789L84.5281 92.851L81.3271 95.8088L78.126 92.851L81.3271 89.4789ZM80.9721 92.7577L81.3271 93.0857L81.682 92.7577L81.3271 92.3839L80.9721 92.7577ZM23.2791 92.0604C23.2777 92.0589 23.2438 92.0232 23.2085 91.9761L24.8092 90.777C24.7871 90.7475 24.7684 90.726 24.7627 90.7196C24.7545 90.7102 24.748 90.7031 24.7446 90.6994C24.7378 90.6921 24.733 90.6873 24.7326 90.6868C24.7326 90.6868 24.7343 90.6885 24.7397 90.6938C24.7526 90.7066 24.7737 90.7271 24.8039 90.7561C24.8636 90.8136 24.9507 90.8969 25.0624 91.0032C25.2853 91.2154 25.601 91.5143 25.9789 91.8716C26.7344 92.5858 27.7359 93.5301 28.7357 94.472C29.7354 95.4139 30.7332 96.353 31.4809 97.0567L32.7251 98.2271L32.7262 98.2282C32.7262 98.2282 32.7265 98.2285 32.0414 98.957L32.7262 98.2282L33.3471 98.8121L32.8695 99.5175C32.6372 99.8607 32.5336 100.266 32.6073 100.7C32.7211 101.364 33.3035 101.984 34.1141 102.147C34.7004 102.264 35.2365 102.149 35.6612 101.902L36.3 101.53L36.9016 102.086L38.112 100.776L38.1136 100.778L39.1738 101.758C39.4403 102.005 39.7081 102.253 39.9116 102.442C40.0133 102.536 40.0995 102.616 40.1615 102.674L40.1737 102.685C40.1964 102.707 40.2325 102.74 40.2655 102.772C40.5549 103.041 40.8176 103.445 40.8576 103.964C40.9458 105.064 40.0647 105.9 39.0659 105.967M38.8638 104.121C38.8639 104.122 38.8639 104.123 38.864 104.123L38.8635 104.117C38.8636 104.118 38.8637 104.12 38.8638 104.121ZM38.8638 104.121C38.8637 104.12 38.8636 104.118 38.8635 104.117C38.8627 104.101 38.864 104.086 38.8666 104.072L38.9517 103.98L38.9461 103.975C38.947 103.975 38.9475 103.976 38.9475 103.976C38.9475 103.976 38.9463 103.975 38.9442 103.973M30.8113 99.1727L30.1103 98.5132C29.3624 97.8094 28.3644 96.87 27.3643 95.9278C26.3642 94.9856 25.3617 94.0404 24.6049 93.325C24.2267 92.9674 23.9091 92.6665 23.6837 92.452C23.5712 92.345 23.4804 92.2583 23.4161 92.1963C23.3843 92.1656 23.3569 92.139 23.3358 92.1183C23.3257 92.1083 23.314 92.0967 23.3028 92.0853C23.2975 92.0799 23.2889 92.0709 23.2791 92.0604M85.4696 93.9369C87.2798 95.006 88.4657 97.0073 88.1907 99.2725C87.874 101.871 85.6183 103.873 82.9533 104.132C80.6059 104.362 78.4927 103.287 77.3367 101.56L78.9986 100.447C79.7436 101.56 81.1427 102.3 82.7587 102.142C84.5973 101.963 86.0146 100.596 86.2053 99.031C86.373 97.6481 85.6635 96.3742 84.4526 95.659L85.4696 93.9369ZM48.8688 97.0205C48.435 97.37 48.1071 98.1271 48.5801 99.2594L46.7346 100.03C45.9858 98.2376 46.3605 96.4729 47.6142 95.463C48.8572 94.4616 50.6722 94.4383 52.3161 95.4817C53.7418 96.3863 55.0588 98.0794 56.0158 100.687L56.4026 101.741L55.3114 102.004C53.1787 102.518 50.7614 103.488 48.7549 104.71C46.7031 105.96 45.2776 107.354 44.8307 108.629C44.7782 108.78 44.7969 109.149 45.21 109.641C45.5992 110.104 46.1998 110.485 46.833 110.609L46.4488 112.571C45.3324 112.353 44.3381 111.712 43.6787 110.927C43.0431 110.171 42.5594 109.066 42.943 107.969C43.6287 106.012 45.569 104.309 47.7143 103.002C49.559 101.878 51.7021 100.958 53.7221 100.361C52.9445 98.6609 52.0424 97.6766 51.2445 97.1704C50.1708 96.4889 49.3133 96.6624 48.8688 97.0205ZM66.1262 97.0206C65.6818 96.6626 64.825 96.489 63.7521 97.1703C62.9543 97.6765 62.0519 98.661 61.2736 100.361C63.2935 100.958 65.4367 101.879 67.2812 103.002C69.4265 104.309 71.3666 106.012 72.0509 107.969L71.1069 108.299L72.0503 107.967C72.0505 107.968 72.0507 107.968 72.0509 107.969C72.4361 109.067 71.9515 110.171 71.3163 110.927C70.6567 111.712 69.6621 112.353 68.5465 112.571L68.1622 110.609C68.7947 110.485 69.3958 110.104 69.7852 109.641C70.1986 109.149 70.2159 108.78 70.1635 108.631L70.1629 108.629C69.7173 107.354 68.2926 105.96 66.2407 104.71C64.2342 103.488 61.8165 102.518 59.6839 102.004L58.5922 101.741L58.9796 100.687C59.9378 98.0796 61.2545 96.3866 62.68 95.4819C64.3234 94.4384 66.1382 94.4618 67.3811 95.4633C68.6344 96.4733 69.0092 98.2379 68.2604 100.031L66.4149 99.2599C66.8879 98.1275 66.56 97.3702 66.1262 97.0206ZM48.2392 110.658C49.1412 106.814 52.2543 103.663 55.4233 102.171L56.2752 103.981C53.5368 105.27 50.9206 107.985 50.1862 111.115C50.1058 111.457 50.2277 111.885 50.6843 112.36C51.1375 112.831 51.7915 113.199 52.3608 113.351L51.8452 115.283C50.9376 115.041 49.9588 114.491 49.2422 113.745C48.5291 113.003 47.9445 111.912 48.2392 110.658ZM59.5731 102.172C62.7426 103.664 65.8539 106.815 66.7573 110.658C67.0512 111.912 66.4669 113.003 65.7537 113.746C65.0369 114.491 64.0579 115.041 63.1494 115.283L62.6346 113.35C63.2045 113.199 63.8585 112.831 64.3116 112.36C64.7682 111.885 64.8905 111.457 64.8102 111.115C64.0742 107.985 61.4593 105.27 58.7212 103.981L59.5731 102.172ZM55.2509 116.844C54.5317 116.285 53.5574 115.307 53.5574 113.966H55.5574C55.5574 114.315 55.8439 114.771 56.4788 115.265C56.8294 115.538 57.2001 115.754 57.4741 115.898C57.7527 115.761 58.143 115.543 58.5118 115.26C59.1535 114.769 59.4379 114.313 59.4379 113.966H61.4379C61.4379 115.309 60.4621 116.287 59.727 116.849C58.9465 117.446 58.1054 117.829 57.7861 117.942L57.4107 118.075L57.0465 117.914C56.8315 117.819 56.0223 117.444 55.2509 116.844Z" fill="black"/>
</svg>
