<svg width="140" height="140" viewBox="0 0 140 140" fill="none" xmlns="http://www.w3.org/2000/svg">
<path d="M64.5 128.143L57 124.071L64.5 120L72 124.071L64.5 128.143Z" fill="#ECEFF5"/>
<path d="M103.5 74L86 64.5L103.5 55L121 64.5L103.5 74Z" fill="#ECEFF5"/>
<path d="M113.5 83.1429L106 79.0714L113.5 75L121 79.0714L113.5 83.1429Z" fill="#ECEFF5"/>
<path fill-rule="evenodd" clip-rule="evenodd" d="M45 31H55V39.5991C57.1055 40.1135 59.0864 40.9451 60.8889 42.0402L66.9707 35.9583L74.0418 43.0294L67.9599 49.1113C69.0549 50.9137 69.8865 52.8945 70.4009 55H79V65H70.4009C69.8865 67.1056 69.0548 69.0866 67.9596 70.8892L74.0412 76.9707L66.9701 84.0418L60.8884 77.9601C59.0861 79.055 57.1054 79.8866 55 80.4009V89H45V80.4009C42.8945 79.8865 40.9137 79.0549 39.1113 77.9599L33.0296 84.0416L25.9585 76.9705L32.0402 70.8889C30.9451 69.0864 30.1135 67.1055 29.5991 65H21V55H29.5991C30.1134 52.8946 30.945 50.9139 32.0399 49.1116L25.9579 43.0296L33.029 35.9585L39.1108 42.0404C40.9134 40.9452 42.8944 40.1135 45 39.5991V31ZM47 33V41.2175L46.1989 41.3801C43.7741 41.8723 41.5167 42.8265 39.5223 44.1475L38.8409 44.5989L33.029 38.7869L28.7863 43.0296L34.5983 48.8416L34.1471 49.523C32.8263 51.5172 31.8722 53.7744 31.3801 56.1989L31.2175 57H23V63H31.2175L31.3801 63.8011C31.8723 66.2258 32.8264 68.4831 34.1473 70.4774L34.5987 71.1588L28.7869 76.9705L33.0296 81.2132L38.8413 75.4014L39.5227 75.8527C41.517 77.1736 43.7743 78.1277 46.1989 78.6199L47 78.7825V87H53V78.7825L53.8011 78.6199C56.2256 78.1278 58.4828 77.1737 60.477 75.8529L61.1584 75.4016L66.9701 81.2133L71.2127 76.9707L65.4011 71.1591L65.8525 70.4777C67.1735 68.4833 68.1277 66.2259 68.6199 63.8011L68.7825 63H77V57H68.7825L68.6199 56.1989C68.1277 53.7743 67.1736 51.517 65.8527 49.5227L65.4014 48.8413L71.2133 43.0294L66.9707 38.7868L61.1588 44.5986L60.4774 44.1473C58.4831 42.8264 56.2258 41.8723 53.8011 41.3801L53 41.2175V33H47ZM50 48C43.3726 48 38 53.3726 38 60C38 66.6274 43.3726 72 50 72C56.6274 72 62 66.6274 62 60C62 53.3726 56.6274 48 50 48ZM36 60C36 52.268 42.268 46 50 46C57.732 46 64 52.268 64 60C64 67.732 57.732 74 50 74C42.268 74 36 67.732 36 60ZM50 53C46.134 53 43 56.134 43 60C43 63.866 46.134 67 50 67C53.866 67 57 63.866 57 60C57 56.134 53.866 53 50 53ZM41 60C41 55.0294 45.0294 51 50 51C54.9706 51 59 55.0294 59 60C59 64.9706 54.9706 69 50 69C45.0294 69 41 64.9706 41 60Z" fill="black"/>
<path fill-rule="evenodd" clip-rule="evenodd" d="M73.8373 77.7738L80.5952 75.0512L82.7465 80.3912C84.0202 80.2319 85.2931 80.2491 86.5332 80.4291L88.7884 75.1308L95.4921 77.9842L93.2369 83.2825C94.2263 84.0515 95.1211 84.9569 95.8892 85.9853L101.229 83.834L103.952 90.5919L98.6117 92.7432C98.7711 94.017 98.7539 95.2899 98.5739 96.5302L103.872 98.7852L101.018 105.489L95.7203 103.234C94.9514 104.223 94.046 105.118 93.0177 105.886L95.169 111.226L88.4111 113.948L86.2598 108.608C84.9862 108.768 83.7133 108.751 82.4732 108.571L80.218 113.869L73.5143 111.015L75.7695 105.717C74.78 104.948 73.8852 104.043 73.1171 103.014L67.7771 105.166L65.0545 98.4078L70.3945 96.2565C70.2352 94.9829 70.2523 93.7102 70.4323 92.4701L65.1339 90.2149L67.9873 83.5112L73.2856 85.7664C74.0546 84.7768 74.9601 83.882 75.9886 83.1138L73.8373 77.7738ZM76.4398 78.8816L78.4455 83.8602L77.7632 84.3103C76.4359 85.1861 75.3193 86.2972 74.4474 87.564L73.984 88.2373L69.0442 86.1347L67.7574 89.1579L72.6973 91.2605L72.5333 92.0612C72.2248 93.5677 72.1982 95.1425 72.4871 96.706L72.6356 97.5098L67.657 99.5156L68.8849 102.563L73.8635 100.557L74.3136 101.24C75.1894 102.567 76.3004 103.684 77.5671 104.555L78.2404 105.019L76.1379 109.958L79.1611 111.245L81.2636 106.306L82.0643 106.47C83.5708 106.778 85.1457 106.805 86.7093 106.516L87.5131 106.367L89.5188 111.346L92.5665 110.118L90.5608 105.14L91.243 104.689C92.5702 103.814 93.6867 102.703 94.5586 101.436L95.022 100.763L99.9615 102.865L101.248 99.8422L96.3089 97.7397L96.4729 96.939C96.7815 95.4324 96.8081 93.8574 96.5192 92.2937L96.3707 91.4899L101.349 89.4841L100.121 86.4365L95.1428 88.4422L94.6926 87.76C93.8169 86.4327 92.706 85.3162 91.4392 84.4443L90.766 83.9809L92.8686 79.0412L89.8453 77.7543L87.7428 82.6941L86.9421 82.5301C85.4356 82.2215 83.8606 82.1949 82.297 82.4838L81.4932 82.6323L79.4874 77.6537L76.4398 78.8816ZM82.9016 90.5246C80.7062 91.4091 79.6434 93.9059 80.5279 96.1014C81.4124 98.2968 83.9092 99.3596 86.1047 98.4751C88.3001 97.5906 89.3629 95.0938 88.4784 92.8983C87.5939 90.7029 85.0971 89.6401 82.9016 90.5246ZM78.6728 96.8487C77.3755 93.6287 78.9342 89.9668 82.1542 88.6695C85.3742 87.3722 89.0362 88.9309 90.3335 92.151C91.6307 95.371 90.072 99.0329 86.852 100.33C83.632 101.627 79.9701 100.069 78.6728 96.8487Z" fill="black"/>
<path fill-rule="evenodd" clip-rule="evenodd" d="M42.5 112C47.1944 112 51 108.194 51 103.5C51 98.8056 47.1944 95 42.5 95C37.8056 95 34 98.8056 34 103.5C34 108.194 37.8056 112 42.5 112ZM42.5 114C48.299 114 53 109.299 53 103.5C53 97.701 48.299 93 42.5 93C36.701 93 32 97.701 32 103.5C32 109.299 36.701 114 42.5 114Z" fill="black"/>
<path fill-rule="evenodd" clip-rule="evenodd" d="M42.5 106C43.8807 106 45 104.881 45 103.5C45 102.119 43.8807 101 42.5 101C41.1193 101 40 102.119 40 103.5C40 104.881 41.1193 106 42.5 106ZM42.5 108C44.9853 108 47 105.985 47 103.5C47 101.015 44.9853 99 42.5 99C40.0147 99 38 101.015 38 103.5C38 105.985 40.0147 108 42.5 108Z" fill="black"/>
<path fill-rule="evenodd" clip-rule="evenodd" d="M83.5 47C84.8807 47 86 45.8807 86 44.5C86 43.1193 84.8807 42 83.5 42C82.1193 42 81 43.1193 81 44.5C81 45.8807 82.1193 47 83.5 47ZM83.5 49C85.9853 49 88 46.9853 88 44.5C88 42.0147 85.9853 40 83.5 40C81.0147 40 79 42.0147 79 44.5C79 46.9853 81.0147 49 83.5 49Z" fill="black"/>
</svg>
