<svg width="140" height="140" viewBox="0 0 140 140" fill="none" xmlns="http://www.w3.org/2000/svg">
<path d="M115.5 107L98 97.5L115.5 88L133 97.5L115.5 107Z" fill="#ECEFF5"/>
<path d="M126.5 88.1429L119 84.0714L126.5 80L134 84.0714L126.5 88.1429Z" fill="#ECEFF5"/>
<path d="M16.5 118.143L9 114.071L16.5 110L24 114.071L16.5 118.143Z" fill="#ECEFF5"/>
<path d="M72.5 49.1429L65 45.0714L72.5 41L80 45.0714L72.5 49.1429Z" fill="#ECEFF5"/>
<path fill-rule="evenodd" clip-rule="evenodd" d="M19.8147 44.731L36.2608 50.6516L45.2025 46.1807L77.1168 58.8135L75.6716 62.8603C74.349 66.5633 70.2366 68.4509 66.5665 67.0393L56.6315 63.2181L53.8712 69.7425C51.5132 75.316 45.096 77.9379 39.5098 75.6103L33.3904 73.0606L34.1596 71.2144L40.279 73.7642C44.8495 75.6686 50.1 73.5233 52.0292 68.9632L55.5435 60.6568L67.2845 65.1726C69.906 66.1809 72.8434 64.8326 73.7881 62.1876L74.5831 59.9615L45.2975 48.3693L36.3892 52.8234L20.9603 47.269L8.29682 79.2292L22.3705 84.8587L34.1176 54.5635L35.9823 55.2865L23.5045 87.4663L5.70312 80.3458L19.8147 44.731ZM94.8435 46.6021L110.328 80.9379L94.9788 87.6116L89.2223 95.2868L44.2136 111.8C41.1317 112.931 37.6871 112.428 35.0571 110.464L35.6555 109.662L34.8864 110.302L30.438 104.949L24.6696 97.1615L24.8126 97.0745C23.4573 93.9412 24.3797 90.2228 27.1608 88.1017L38.2685 79.6299L39.4814 81.2201L28.3737 89.6919C26.408 91.1912 25.7065 93.7769 26.5438 96.0205L47.2799 83.3959L48.32 85.1041L27.5803 97.7309L31.4875 103.006L55.5714 88.4935L56.6036 90.2065L32.7379 104.587L35.8977 108.389L58.4318 96.0356L59.3932 97.7894L37.6685 109.699C39.4953 110.533 41.5992 110.629 43.5247 109.923L87.9776 93.6132L93.6962 85.9884L107.672 79.9121L93.8315 49.2229L81.0076 54.7985L93.9722 83.1972L92.1528 84.0278L78.3424 53.7765L94.8435 46.6021Z" fill="black"/>
</svg>
