<svg width="140" height="140" viewBox="0 0 140 140" fill="none" xmlns="http://www.w3.org/2000/svg">
<path d="M113.5 84L96 74.5L113.5 65L131 74.5L113.5 84Z" fill="#ECEFF5"/>
<path d="M14.5 78.1429L7 74.0714L14.5 70L22 74.0714L14.5 78.1429Z" fill="#ECEFF5"/>
<path d="M123.5 93.1429L116 89.0714L123.5 85L131 89.0714L123.5 93.1429Z" fill="#ECEFF5"/>
<path d="M115.5 105.143L108 101.071L115.5 97L123 101.071L115.5 105.143Z" fill="#ECEFF5"/>
<path fill-rule="evenodd" clip-rule="evenodd" d="M62 31H91V60H89V85H99V114H16V85H33V58H42V38H62V31ZM64 38.9723L72.4181 44.727L74.5496 43.3504L65.1927 37H64V38.9723ZM64 35H89V33H64V35ZM89 37H87.2958C85.3629 38.2578 83.6035 39.5126 81.9303 40.7132C81.8224 40.7906 81.7148 40.8679 81.6074 40.9449C79.9874 42.1077 78.4358 43.2215 76.9034 44.2112L64 52.5446V54H66.1968L75.8144 47.5778L79.8567 45.0836L89 38.9659V37ZM89 41.3723L82.2308 45.9015L89 50.184V41.3723ZM89 52.5507L80.3909 47.1041L78.1909 48.4615L86.3086 54H89V52.5507ZM89 56H64V58H89V56ZM62 56V42L61 43.3333V54.6667L62 56ZM59 54V52H47V54H59ZM45 54.6667V43.3333L44 42V56L45 54.6667ZM45 58H61L59.5 56H46.5L45 58ZM60 60H35V62H60V60ZM60 64H41.2342L60 79.8467V64ZM58.2658 81L38.1343 64H36.7342L56.8657 81H58.2658ZM53.7658 81L35 65.1533V81H53.7658ZM35 83V85H60V83H35ZM62 85H87V80H62V85ZM62 78H87V73H62V78ZM62 71H87V66H62V71ZM62 64H87V60H62V64ZM45 40H61L59.5 42H46.5L45 40ZM47 44V46H59V44H47ZM59 48H47V50H59V48ZM64 41.3949V50.1637L70.5958 45.9039L64 41.3949ZM82.76 54L76.3488 49.6258L69.7983 54H82.76ZM83.7135 37H68.7542L76.3709 42.1694C77.6831 41.2998 79.0227 40.3383 80.4532 39.3115C80.5565 39.2374 80.6602 39.1629 80.7644 39.0882C81.7061 38.4125 82.6853 37.7122 83.7135 37ZM18 87V90H43V87H18ZM45 87V90H48V87H45ZM50 87V90H65V87H50ZM67 87V90H70V87H67ZM72 87V90H97V87H72ZM97 92H84.3144L97 105.478V92ZM95.6856 107L81.5679 92H73.3144L87.4321 107H95.6856ZM84.6856 107L72 93.5216V107H84.6856ZM70 107V92H67V107H70ZM67 109H70V112H67V109ZM65 107V98.4142L56.4142 107H65ZM53.5858 107L65 95.5858V92H61.4142L50 103.414V107H53.5858ZM50 109H65V112H50V109ZM48 107V92H45V107H48ZM45 109H48V112H45V109ZM43 107V92H18V107H43ZM18 109H43V112H18V109ZM50 92V100.586L58.5858 92H50ZM72 112V109H97V112H72Z" fill="black"/>
</svg>
