<svg width="140" height="140" viewBox="0 0 140 140" fill="none" xmlns="http://www.w3.org/2000/svg">
<path d="M111.5 91L94 81.5L111.5 72L129 81.5L111.5 91Z" fill="#ECEFF5"/>
<path d="M92.5 111.143L85 107.071L92.5 103L100 107.071L92.5 111.143Z" fill="#ECEFF5"/>
<path d="M102.5 72.1429L95 68.0714L102.5 64L110 68.0714L102.5 72.1429Z" fill="#ECEFF5"/>
<path fill-rule="evenodd" clip-rule="evenodd" d="M32.5728 51.6356C26.2419 57.2011 22.5809 65.019 22.1113 73.1516L26.0883 70.8555C26.2473 68.4847 26.6503 66.1753 27.2257 63.9695C28.4456 59.2934 30.4463 55.0563 32.5728 51.6356ZM26.0131 73.2083L22.0646 75.488C22.1489 80.2576 23.337 85.0706 25.7337 89.5429L29.5467 87.3415C27.0381 82.6531 26.0301 77.8422 26.0131 73.2083ZM31.2798 86.3409C28.7621 81.6091 27.8722 76.7323 28.0302 72.0438L33.5148 68.8773C34.0934 73.3489 35.4147 78.0256 37.8616 82.5409L31.2798 86.3409ZM30.5458 89.0741L26.7337 91.275C29.4085 95.5868 32.9826 99.0221 37.071 101.48L40.8578 99.2937C36.9514 96.9356 33.3604 93.6251 30.5458 89.0741ZM42.8559 98.1401C38.832 95.9088 35.132 92.6664 32.2787 88.0736L38.8616 84.2729C41.5485 88.6497 44.938 92.1323 48.5213 94.8692L42.8559 98.1401ZM42.8964 100.426L39.1178 102.608C46.2514 106.195 54.6563 106.975 62.5065 104.462C58.6502 104.61 54.2314 104.263 49.8012 103.065C47.4797 102.438 45.1506 101.575 42.8964 100.426ZM68.7068 103.99C58.3122 109.584 46.1699 109.037 36.5669 103.504C31.7054 100.703 27.4937 96.6229 24.488 91.4169C21.4822 86.2108 20.055 80.5235 20.0597 74.9126C20.069 63.8221 25.6744 53.0263 35.729 46.8233L31.1263 38.4832L32.8773 37.5168L37.4619 45.8241C47.8537 40.2374 59.9901 40.7856 69.5891 46.3169C74.4506 49.1182 78.6623 53.1979 81.6681 58.4039C84.6738 63.61 86.101 69.2973 86.0963 74.9082C86.087 85.9943 80.486 96.7859 70.439 102.99L75.8711 112.504L74.1342 113.496L68.7068 103.99ZM73.721 98.0633C79.9672 92.5058 83.5785 84.7426 84.0447 76.6692L80.4256 78.7586C80.2433 81.1467 79.8132 83.4745 79.2087 85.6988C77.9378 90.3751 75.8902 94.6224 73.721 98.0633ZM80.5224 76.3933L84.0915 74.3328C84.0071 69.5632 82.819 64.7502 80.4223 60.2779L77.0586 62.2199C79.5646 66.9108 80.5455 71.7373 80.5224 76.3933ZM75.3255 63.2205C77.8392 67.9534 78.6983 72.8481 78.4943 77.5643L72.6412 80.9435C72.0626 76.4719 70.7413 71.7952 68.2944 67.2799L75.3255 63.2205ZM76.0586 60.4878L79.4223 58.5458C76.7475 54.234 73.1734 50.7987 69.085 48.3408L65.5159 50.4014C69.5598 52.7094 73.2492 55.9721 76.0586 60.4878ZM63.4879 51.5723C67.6742 53.7537 71.4836 56.9451 74.3255 61.4884L67.2944 65.5479C64.6075 61.1711 61.218 57.6885 57.6348 54.9516L63.4879 51.5723ZM63.4191 49.3026L67.0382 47.2131C59.8133 43.5801 51.2845 42.8259 43.3486 45.4566C47.413 45.2985 52.1151 45.6488 56.8003 46.8863C59.0289 47.475 61.2599 48.2664 63.4191 49.3026ZM34.3329 52.5928C32.2832 55.8703 30.3386 59.9604 29.1609 64.4744C28.7248 66.1463 28.3946 67.8726 28.2027 69.6348L33.2885 66.6985C32.8715 61.3965 33.4438 56.4802 34.3329 52.5928ZM35.4005 67.7885C35.8892 72.274 37.1429 76.9991 39.5944 81.5405L51.712 74.5444L44.7087 62.4144L35.4005 67.7885ZM43.7087 60.6824L35.2188 65.584C34.8537 59.1 35.9981 53.2903 37.2615 49.5155L43.7087 60.6824ZM46.4408 61.4144L53.444 73.5444L65.5616 66.5483C62.8545 62.1545 59.3892 58.7062 55.7491 56.0403L46.4408 61.4144ZM53.9308 54.7807L45.4408 59.6824L38.9936 48.5155C42.8945 49.3087 48.498 51.2225 53.9308 54.7807ZM55.861 53.6663L61.2904 50.5316C59.6525 49.8293 57.9746 49.2651 56.2895 48.82C51.6374 47.5912 46.9595 47.2799 42.9816 47.4745C46.8213 48.6431 51.4235 50.6167 55.861 53.6663ZM66.5616 68.2803L54.444 75.2764L61.4473 87.4064L70.7555 82.0323C70.2668 77.5468 69.0131 72.8217 66.5616 68.2803ZM70.9372 84.2368L62.4473 89.1384L68.8945 100.305C70.1579 96.5305 71.3023 90.7208 70.9372 84.2368ZM67.1624 101.305L60.7152 90.1384L52.2252 95.0401C57.658 98.5983 63.2616 100.512 67.1624 101.305ZM50.295 96.1545L44.9893 99.2178C46.7387 100.02 48.5299 100.65 50.3231 101.135C54.9241 102.378 59.5185 102.657 63.402 102.415C59.5173 101.256 54.8205 99.2646 50.295 96.1545ZM71.7899 97.3721C73.9475 94.0244 76.0168 89.8176 77.2787 85.1743C77.7358 83.4924 78.0861 81.7573 78.2968 79.9877L72.8675 83.1223C73.2897 88.49 72.6978 93.4625 71.7899 97.3721ZM50.4069 93.7805L59.7152 88.4064L52.712 76.2764L40.5944 83.2725C43.3015 87.6663 46.7668 91.1146 50.4069 93.7805Z" fill="black"/>
<path fill-rule="evenodd" clip-rule="evenodd" d="M82.2425 37.6932C81.4033 37.8058 80.5376 37.9955 79.6605 38.2472L79.1089 36.3247C80.0634 36.0509 81.0253 35.8386 81.9765 35.7109L82.2425 37.6932ZM87.5304 38.3826C87.1793 38.1954 86.8086 38.0428 86.4197 37.9227L87.0097 36.0118C87.5131 36.1672 88.002 36.3675 88.4716 36.6179C89.1078 36.9573 89.6428 37.4064 90.0823 37.9433L88.5346 39.2101C88.2562 38.87 87.9251 38.5931 87.5304 38.3826ZM75.4682 39.8462C74.6347 40.2353 73.8222 40.6536 73.0459 41.0841L72.0761 39.3349C72.8889 38.8843 73.7427 38.4445 74.6222 38.034L75.4682 39.8462ZM69.1978 43.4934C68.8023 43.7725 68.4384 44.0408 68.1107 44.2929L66.8913 42.7077C67.2421 42.4378 67.6282 42.1531 68.0447 41.8593L69.1978 43.4934ZM89.4987 47.2065C89.6665 46.0579 89.7594 44.9641 89.7602 43.9551L91.7602 43.9568C91.7593 45.0832 91.656 46.2754 91.4776 47.4957L89.4987 47.2065ZM32.1647 46.9419C31.8849 46.842 31.5364 46.7455 31.1328 46.6691L31.5045 44.704C32.0008 44.7978 32.4507 44.9203 32.8373 45.0584L32.1647 46.9419ZM27.4617 46.71C26.7766 46.8536 26.0759 47.0827 25.385 47.4223L24.5028 45.6273C25.3553 45.2083 26.2161 44.9276 27.0513 44.7525L27.4617 46.71ZM22.5083 49.6795C22.2739 49.9528 22.0449 50.2488 21.823 50.5694C21.5912 50.9041 21.3807 51.2402 21.1899 51.5766L19.4503 50.5897C19.6705 50.2017 19.9127 49.8149 20.1786 49.4309C20.4391 49.0547 20.7101 48.7039 20.9903 48.3773L22.5083 49.6795ZM87.2966 55.8252C87.6543 54.7795 87.9942 53.7042 88.301 52.6231L90.225 53.1691C89.9075 54.2879 89.5568 55.3971 89.1889 56.4725L87.2966 55.8252ZM19.7982 55.2585C19.6282 56.0721 19.5452 56.8638 19.5266 57.6149L17.5272 57.5655C17.5485 56.7022 17.644 55.7896 17.8405 54.8493L19.7982 55.2585ZM84.5943 62.5784C84.8151 62.1037 85.0445 61.5924 85.2785 61.0507L87.1145 61.8439C86.8735 62.4017 86.6366 62.9298 86.4077 63.4219L84.5943 62.5784ZM20.0189 61.5191C20.1455 61.9478 20.2816 62.3053 20.4089 62.581L18.593 63.4192C18.4199 63.0441 18.2511 62.5944 18.1008 62.0859L20.0189 61.5191ZM19.4481 89.1489C19.6899 88.7243 19.9271 88.3288 20.1546 87.9675L21.847 89.0331C21.6361 89.3681 21.414 89.7383 21.1859 90.1389L19.4481 89.1489ZM16.454 95.8217C16.7488 94.9377 17.079 94.0746 17.4273 93.2496L19.2698 94.0274C18.9396 94.8098 18.6281 95.6244 18.3513 96.4544L16.454 95.8217ZM15.1778 103.149C15.1533 102.219 15.2209 101.267 15.3573 100.317L17.337 100.601C17.2138 101.46 17.156 102.297 17.1771 103.096L15.1778 103.149ZM40.4372 107.9C40.0193 108.103 39.5658 108.312 39.0827 108.525L38.2781 106.694C38.7397 106.491 39.1704 106.292 39.5647 106.1L40.4372 107.9ZM17.2374 109.146C16.9032 108.751 16.6148 108.331 16.3686 107.891L18.1142 106.915C18.2997 107.247 18.5155 107.56 18.7642 107.854C19.0274 108.165 19.325 108.438 19.6545 108.676L18.4847 110.298C18.0285 109.969 17.6099 109.586 17.2374 109.146ZM34.4416 110.283C33.5141 110.582 32.5511 110.86 31.5734 111.103L31.0915 109.162C32.0206 108.931 32.9397 108.666 33.8287 108.38L34.4416 110.283ZM26.6276 111.949C25.5807 112.035 24.5461 112.049 23.5525 111.969L23.7137 109.975C24.5796 110.045 25.5038 110.034 26.4649 109.956L26.6276 111.949Z" fill="black"/>
</svg>
