<svg width="390" height="319" viewBox="0 0 390 319" fill="none" xmlns="http://www.w3.org/2000/svg">
<path fill-rule="evenodd" clip-rule="evenodd" d="M78.0604 130.281C76.2782 128.726 73.715 128.761 72.2442 129.213C73.2078 128.036 75.4514 127.07 76.1128 126.953C76.6164 127.141 78.0602 128.618 78.0602 130.281L78.0604 130.281ZM83.7507 123.841C82.5788 117.6 68.0078 121.735 60.6699 119.084C60.5292 120.903 62.9288 123.818 65.2242 124.897C61.3006 128.287 57.7781 135.116 57.0674 143.459C56.3588 135.116 52.8361 128.287 48.9127 124.897C51.2079 123.818 53.6095 120.903 53.467 119.084C46.1291 121.735 31.5579 117.6 30.3838 123.841C30.1368 125.161 30.7752 127.174 31.4651 127.753C31.5883 127.334 32.2326 125.965 34.2636 125.658C44.5294 124.114 53.1002 139.863 45.3637 146.231C45.2459 146.328 45.3119 146.507 45.4717 146.507H68.6665C68.8244 146.507 68.891 146.328 68.7751 146.231C61.0363 139.863 69.6073 124.114 79.8729 125.658C81.9059 125.965 82.5479 127.334 82.6716 127.753C83.3613 127.174 83.9997 125.162 83.7507 123.84V123.841ZM86.2476 109.517C86.0633 108.927 92.0824 108.912 92.0824 112.662C92.0824 115.176 88.482 116.366 88.482 118.974C88.482 120.189 89.7949 121.08 90.1977 121.08C89.2704 116.893 93.1049 119.084 94.1403 119.867C92.0826 114.236 96.7149 114.271 96.2589 111.689C95.9415 109.885 91.9154 110.43 90.4581 109.517C87.8724 107.896 84.8134 101.592 82.7973 107.896C86.5556 111.37 84.3688 116.481 79.5979 116.481C79.5979 116.481 79.5711 117.231 79.6148 117.291C85.3054 117.013 87.289 112.85 86.2477 109.517H86.2476ZM19.8578 119.867C20.8936 119.084 24.7275 116.893 23.8025 121.08C24.2032 121.08 25.5161 120.189 25.5161 118.974C25.5161 116.366 21.9155 115.176 21.9155 112.662C21.9155 108.912 27.9349 108.927 27.7504 109.517C26.7111 112.85 28.695 117.013 34.3853 117.291C34.427 117.231 34.4004 116.481 34.4004 116.481C29.6315 116.481 27.4445 111.369 31.2009 107.896C29.1849 101.592 26.1259 107.896 23.5402 109.517C22.083 110.43 18.0568 109.885 17.7394 111.689C17.2851 114.271 21.9154 114.236 19.8577 119.867H19.8578ZM36.0154 130.281C37.7994 128.726 40.3626 128.761 41.8316 129.213C40.8719 128.035 38.6244 127.07 37.9649 126.953C37.4613 127.141 36.0156 128.618 36.0156 130.281L36.0154 130.281ZM59.7749 95.369L56.999 92L54.2232 95.369L56.9991 98.9146L59.7752 95.369H59.7749ZM75.6209 105.556L73.6468 103.162L71.6746 105.556L73.6468 107.896L75.6209 105.556V105.556ZM91.6322 174.762L89.1299 172.126L86.6275 174.762L89.1299 177.074L91.6322 174.762V174.762ZM42.3253 105.556L40.351 103.161L38.3788 105.556L40.351 107.896L42.3251 105.556H42.3253ZM36.6708 117.29H44.0333C50.2234 117.29 53.0089 113.508 53.8506 110.229H60.1492C60.991 113.509 63.7742 117.29 69.9665 117.29H77.3291C77.3291 117.29 78.617 115.551 78.9398 114.69C80.1029 111.591 78.617 110.145 76.4491 110.145L73.6466 112.673L70.8441 110.145C68.6762 110.145 67.1905 111.591 68.3533 114.69C68.5015 115.086 68.8569 115.668 69.193 116.18C66.5805 115.823 63.246 114.043 62.5144 110.229C62.5144 110.229 64.4447 107.176 64.9294 105.941C66.6699 101.499 64.4469 99.6829 61.196 99.6829L56.9988 104.594L52.802 99.6829C49.5511 99.6829 47.328 101.499 49.0703 105.941C49.5532 107.176 51.4854 110.229 51.4854 110.229C50.752 114.043 47.4175 115.823 44.805 116.18C45.1432 115.668 45.4966 115.086 45.6448 114.69C46.8055 111.591 45.3237 110.145 43.1537 110.145L40.3514 112.673L37.549 110.145C35.3794 110.145 33.8972 111.591 35.0583 114.69C35.3812 115.551 36.6713 117.291 36.6713 117.291L36.6708 117.29ZM112.79 140.008C111.369 140.724 103.032 144.612 92.3521 143.174C92.4627 142.667 92.5565 142.156 92.6333 141.643C99.7412 140.797 105.519 139.597 109.201 137.558C113.398 135.233 115.234 129.682 113.115 125.552C113.06 125.448 112.908 125.429 112.832 125.516C111.672 126.847 104.372 134.751 92.871 137.208C92.8415 136.615 92.787 136.024 92.7076 135.436C98.2933 132.282 103.747 128.649 106.344 125.327C110.269 120.304 109.908 113.897 106.173 110.63C106.134 110.597 106.083 110.582 106.032 110.59C105.982 110.597 105.937 110.625 105.909 110.668C104.727 112.608 93.6655 130.405 81.5206 138.088C81.3724 138.182 81.2229 138.275 81.0723 138.365C80.7245 138.576 80.6866 139.026 80.9831 139.293C82.3831 140.557 83.2534 142.315 83.2534 144.266C83.2534 147.659 80.6257 150.481 77.1525 151.093C75.3873 151.434 72.8392 151.335 70.3921 150.53C70.2819 150.494 70.168 150.567 70.168 150.676V161.423C70.168 161.596 70.4323 161.639 70.4948 161.473C71.9823 157.55 76.4359 156.717 78.3836 156.717C79.0846 160.91 80.3366 164.383 81.9631 166.253C84.6113 169.29 88.936 169.248 90.8113 167.147C90.8423 167.113 90.8555 167.066 90.8474 167.02C90.8392 166.974 90.8104 166.935 90.7694 166.913C89.6676 166.282 83.3632 162.43 82.1014 156.116C82.5997 155.945 83.0857 155.751 83.5515 155.522C85.5863 158.875 88.5483 161.86 90.9328 163.001C94.9381 164.913 98.6049 163.983 100.231 161.183C100.29 161.085 100.218 160.962 100.098 160.951C97.6208 160.754 90.017 158.584 86.7793 153.299C87.1501 152.961 87.5129 152.607 87.8511 152.231C91.2386 154.799 96.0289 157.068 99.4583 157.531C103.471 158.075 108.018 156.8 108.128 152.155C108.13 152.062 108.046 151.986 107.948 151.992C106.521 152.077 97.0757 152.486 90.3458 148.641C90.5796 148.199 90.7976 147.748 90.9994 147.29C90.9994 147.29 101.168 149.683 105.987 148.89C110.775 148.104 113.579 144.55 113.038 140.131C113.022 140.02 112.893 139.955 112.791 140.008L112.79 140.008ZM22.9984 147.291C23.2008 147.749 23.4194 148.199 23.6538 148.642C16.926 152.485 7.4849 152.079 6.05239 151.992C5.95168 151.986 5.86811 152.066 5.86989 152.158C5.98239 156.801 10.5271 158.075 14.5396 157.532C17.9675 157.069 22.7593 154.799 26.1468 152.232C26.487 152.608 26.8481 152.961 27.2182 153.3C23.9789 158.584 16.3771 160.754 13.8994 160.951C13.7798 160.962 13.7094 161.085 13.7666 161.184C15.393 163.983 19.06 164.913 23.0671 163.001C25.4498 161.861 28.4118 158.875 30.4468 155.523C30.914 155.751 31.4004 155.945 31.8963 156.116C30.6347 162.43 24.3305 166.283 23.2284 166.913C23.1877 166.935 23.1593 166.975 23.1512 167.02C23.1431 167.066 23.1561 167.113 23.1866 167.147C25.062 169.248 29.3884 169.29 32.0367 166.253C33.6635 164.383 34.9135 160.91 35.6145 156.717C37.5638 156.717 42.0155 157.551 43.5032 161.474C43.5678 161.639 43.8317 161.596 43.8317 161.423V150.676C43.8317 150.567 43.716 150.494 43.6058 150.53C41.1587 151.335 38.6108 151.434 36.8476 151.093C33.3726 150.481 30.7449 147.659 30.7449 144.266C30.7449 142.314 31.6168 140.555 33.0152 139.292C33.3135 139.025 33.2736 138.575 32.9277 138.365C32.7759 138.275 32.6251 138.182 32.4756 138.088C20.3384 130.409 9.28224 112.625 8.09098 110.671C8.03562 110.58 7.90276 110.561 7.82098 110.632C4.09131 113.9 3.72845 120.305 7.65383 125.326C10.2512 128.649 15.7039 132.282 21.2882 135.435C21.2094 136.024 21.1556 136.615 21.1268 137.208C9.63563 134.752 2.34148 126.861 1.16915 125.521C1.09129 125.43 0.935219 125.449 0.882183 125.553C-1.23212 129.685 0.603074 135.232 4.79649 137.558C8.47866 139.596 14.2566 140.796 21.3645 141.643C21.4412 142.156 21.535 142.667 21.6455 143.174C10.9771 144.61 2.64362 140.731 1.21111 140.009C1.10468 139.955 0.975398 140.022 0.962183 140.134C0.422894 144.554 3.22506 148.104 8.01312 148.89C12.8296 149.683 22.9984 147.29 22.9984 147.29V147.291ZM89.1297 180.469L85.4247 177.567C83.9465 178.443 82.8597 179.835 82.4379 181.466C80.2093 181.777 74.1328 180.434 74.7235 179.543C81.3832 170.219 76.2893 164.668 70.1676 164.977V171.239C70.1676 173.25 68.4044 174.879 66.2326 174.879H62.0054C58.9729 174.879 56.9988 177.913 56.9988 177.913C56.9988 177.913 55.025 174.879 51.9925 174.879H47.765C45.5918 174.879 43.8323 173.25 43.8323 171.239V164.977C37.7104 164.669 32.6126 170.22 39.2742 179.543C39.8594 180.425 33.614 181.837 30.6843 181.48C29.9129 180.683 28.7993 180.181 27.5529 180.181C27.023 180.181 26.4974 180.275 26.0006 180.459C26.0006 180.459 14.4887 169.609 14.2778 169.503L14.3728 169.284C15.0282 168.063 14.0251 166.733 13.3907 166.826C14.1276 165.947 14.1621 162.094 10.0731 161.203C10.1928 161.977 10.2535 163.556 10.2535 163.556C10.2535 163.556 7.09776 161.858 5.5131 163.323C4.1206 164.964 6.05293 167.941 6.05293 167.941C6.05293 167.941 4.43792 167.98 3.64184 167.913C4.81239 171.853 8.73777 171.574 9.58706 170.796C9.5317 171.423 10.9514 172.316 12.1539 171.6L12.6821 171.345C12.7753 171.469 23.9872 182.014 23.9872 182.014C23.4721 182.775 23.2271 183.708 23.3961 184.704C23.6621 186.259 24.9639 187.548 26.6265 187.883C27.8004 188.117 28.9043 187.89 29.7897 187.375L32.7576 190.117C33.0219 190.355 33.379 190.504 33.7777 190.476C34.5036 190.428 35.047 189.842 34.992 189.17C34.9692 188.867 34.8135 188.607 34.5986 188.41C34.5511 188.357 31.5758 185.608 31.5758 185.608C34.0303 183.894 38.6037 182.687 42.3998 182.687C43.0667 182.687 43.3801 182.126 43.1503 181.575C41.4307 177.458 45.1282 174.476 48.9528 176.904C50.6213 177.962 52.3161 180.047 53.5929 183.526C47.3171 185.039 39.438 189.205 37.8438 193.754C37.2301 195.51 39.2574 197.904 41.7198 198.386C41.7634 198.396 41.809 198.388 41.8465 198.364C41.884 198.339 41.9102 198.301 41.9192 198.258C43.2057 191.468 50.5414 186.407 54.3586 185.548C54.5506 186.06 54.4877 185.894 54.6797 186.404C50.5225 188.361 46.4907 192.489 45.3393 197.396C44.811 199.643 47.3285 201.669 49.4071 202.224C49.5116 202.252 49.6143 202.179 49.62 202.079C50.0152 195.873 52.7682 190.602 55.2343 188.205C55.3019 188.673 55.3526 189.144 55.3865 189.616C55.3865 189.616 52.8614 196.62 52.8614 201.731C52.8614 204.108 56.4106 205.768 56.935 206C57.5904 205.768 61.1377 204.108 61.1377 201.731C61.1377 196.62 58.6127 189.616 58.6127 189.616C58.6472 189.144 58.6985 188.673 58.7667 188.205C61.231 190.602 63.9858 195.871 64.3792 202.076C64.3849 202.177 64.4894 202.252 64.5917 202.224C66.6724 201.669 69.1881 199.644 68.6617 197.396C67.5081 192.489 63.4785 188.361 59.3211 186.404C59.5111 185.894 59.4484 186.06 59.6404 185.548C63.4595 186.408 70.7935 191.467 72.0798 198.258C72.0891 198.301 72.1153 198.339 72.1528 198.363C72.1903 198.387 72.2358 198.395 72.2794 198.386C74.7398 197.904 76.7709 195.51 76.1534 193.754C74.5632 189.205 66.6819 185.039 60.4063 183.526C61.6849 180.048 63.3795 177.962 65.0478 176.904C68.8707 174.476 72.568 177.458 70.8485 181.575C70.6185 182.126 70.9301 182.687 71.5991 182.687C75.8928 182.687 81.1823 184.231 83.2759 186.302C84.6138 188.3 87.0856 189.578 89.8749 189.304C93.044 188.996 95.6281 186.625 95.9853 183.696C96.2969 181.128 94.9631 178.823 92.8371 177.568L89.1299 180.47L89.1297 180.469ZM61.821 161.768C63.1415 161.281 65.2106 161.675 65.1403 163.572C65.1233 164.002 65.7296 164.002 65.7731 163.563C66.1683 160.722 64.2397 159.903 62.222 160.237C61.9713 159.26 61.7661 158.406 61.5324 157.56C61.3463 156.875 61.2777 155.59 62.074 155.59C62.5035 155.59 62.3306 156.786 62.2908 157.301C62.2545 157.753 62.4179 158.027 62.7867 158.04C63.0167 158.049 63.3037 157.757 63.4745 157.563C64.6299 156.263 64.8978 154.25 63.5449 153.279C62.4128 152.464 59.5777 153.071 58.7984 154.232C58.6809 153.794 58.1184 153.073 57.8484 152.758C57.5865 152.451 57.5181 152.241 57.8809 151.971C58.052 151.841 58.5688 151.33 58.5688 150.801C58.5688 150.489 58.3256 149.912 57.5524 149.912C56.9424 149.912 56.2641 150.333 56.2641 151.27C56.2641 151.479 56.3154 151.702 56.4502 151.942C56.0645 151.878 55.0177 151.905 54.48 152.037L61.9147 172.345C64.0428 171.3 65.6026 169.644 65.6026 167.868C65.6026 166.353 63.3622 166.856 62.2736 168.037C61.924 166.117 61.6124 164.344 61.2724 162.577C61.1795 162.09 61.4283 161.915 61.8215 161.768L61.821 161.768ZM51.3084 147.972L52.8702 152.292C51.5327 152.608 49.382 153.579 49.382 154.864C49.382 156.576 52.4238 157.69 54.1832 157.556C54.0957 157.947 54.1966 158.295 54.4702 158.613C53.8318 158.613 52.6273 158.908 52.232 159.333C51.2991 158.468 49.8398 158.153 49.1462 158.68C48.4491 159.21 48.4284 160.108 49.1559 161.124C49.663 161.827 49.8532 162.521 49.2832 163.336C51.4036 163.336 50.6225 160.592 51.4529 160.592C51.3446 161.124 51.4111 161.74 51.6525 162.423C51.8121 162.876 51.8121 163.198 51.5386 163.635C50.8546 164.724 49.7907 167.224 49.935 169.484C49.2396 169.48 48.8862 169.311 49.1314 168.366C49.2225 168.014 49.0041 167.763 48.7153 168.197C48.3961 168.675 48.2421 169.492 48.2421 169.841C48.2421 171.854 50.6511 172.26 51.5707 171.834C54.2309 174.396 59.4559 173.712 61.2058 172.853L52.0061 147.726C51.8179 147.252 51.1436 147.479 51.3088 147.972L51.3084 147.972ZM50.9891 168.669C50.7991 167.635 52.245 165.786 54.0843 164.002C53.6929 165.164 53.9361 167.168 54.7036 167.858C53.3697 167.858 51.7852 168.108 50.9893 168.669H50.9891Z" fill="#F5F5F5"/>
<path d="M14.3 152.826V157.916H11.61V143.456H16.31C17.2767 143.456 18.1133 143.569 18.82 143.796C19.5267 144.023 20.11 144.339 20.57 144.746C21.03 145.153 21.37 145.639 21.59 146.206C21.8167 146.773 21.93 147.393 21.93 148.066C21.93 148.766 21.8133 149.409 21.58 149.996C21.3467 150.576 20.9967 151.076 20.53 151.496C20.0633 151.916 19.4767 152.243 18.77 152.476C18.07 152.709 17.25 152.826 16.31 152.826H14.3ZM14.3 150.726H16.31C16.8033 150.726 17.2333 150.666 17.6 150.546C17.9667 150.419 18.27 150.243 18.51 150.016C18.7567 149.783 18.94 149.503 19.06 149.176C19.18 148.843 19.24 148.473 19.24 148.066C19.24 147.679 19.18 147.329 19.06 147.016C18.94 146.703 18.76 146.436 18.52 146.216C18.28 145.996 17.9767 145.829 17.61 145.716C17.2433 145.596 16.81 145.536 16.31 145.536H14.3V150.726ZM39.7828 150.686C39.7828 151.746 39.6061 152.729 39.2528 153.636C38.9061 154.536 38.4128 155.316 37.7728 155.976C37.1328 156.636 36.3628 157.153 35.4628 157.526C34.5628 157.893 33.5628 158.076 32.4628 158.076C31.3695 158.076 30.3728 157.893 29.4728 157.526C28.5728 157.153 27.7995 156.636 27.1528 155.976C26.5128 155.316 26.0161 154.536 25.6628 153.636C25.3095 152.729 25.1328 151.746 25.1328 150.686C25.1328 149.626 25.3095 148.646 25.6628 147.746C26.0161 146.839 26.5128 146.056 27.1528 145.396C27.7995 144.736 28.5728 144.223 29.4728 143.856C30.3728 143.483 31.3695 143.296 32.4628 143.296C33.1961 143.296 33.8861 143.383 34.5328 143.556C35.1795 143.723 35.7728 143.963 36.3128 144.276C36.8528 144.583 37.3361 144.959 37.7628 145.406C38.1961 145.846 38.5628 146.339 38.8628 146.886C39.1628 147.433 39.3895 148.026 39.5428 148.666C39.7028 149.306 39.7828 149.979 39.7828 150.686ZM37.0328 150.686C37.0328 149.893 36.9261 149.183 36.7128 148.556C36.4995 147.923 36.1961 147.386 35.8028 146.946C35.4095 146.506 34.9295 146.169 34.3628 145.936C33.8028 145.703 33.1695 145.586 32.4628 145.586C31.7561 145.586 31.1195 145.703 30.5528 145.936C29.9928 146.169 29.5128 146.506 29.1128 146.946C28.7195 147.386 28.4161 147.923 28.2028 148.556C27.9895 149.183 27.8828 149.893 27.8828 150.686C27.8828 151.479 27.9895 152.193 28.2028 152.826C28.4161 153.453 28.7195 153.986 29.1128 154.426C29.5128 154.859 29.9928 155.193 30.5528 155.426C31.1195 155.659 31.7561 155.776 32.4628 155.776C33.1695 155.776 33.8028 155.659 34.3628 155.426C34.9295 155.193 35.4095 154.859 35.8028 154.426C36.1961 153.986 36.4995 153.453 36.7128 152.826C36.9261 152.193 37.0328 151.479 37.0328 150.686ZM54.0752 154.506C54.2218 154.506 54.3518 154.563 54.4652 154.676L55.5252 155.826C54.9385 156.553 54.2152 157.109 53.3552 157.496C52.5018 157.883 51.4752 158.076 50.2752 158.076C49.2018 158.076 48.2352 157.893 47.3752 157.526C46.5218 157.159 45.7918 156.649 45.1852 155.996C44.5785 155.343 44.1118 154.563 43.7852 153.656C43.4652 152.749 43.3052 151.759 43.3052 150.686C43.3052 149.599 43.4785 148.606 43.8252 147.706C44.1718 146.799 44.6585 146.019 45.2852 145.366C45.9185 144.713 46.6718 144.206 47.5452 143.846C48.4185 143.479 49.3852 143.296 50.4452 143.296C51.4985 143.296 52.4318 143.469 53.2452 143.816C54.0652 144.163 54.7618 144.616 55.3352 145.176L54.4352 146.426C54.3818 146.506 54.3118 146.576 54.2252 146.636C54.1452 146.696 54.0318 146.726 53.8852 146.726C53.7852 146.726 53.6818 146.699 53.5752 146.646C53.4685 146.586 53.3518 146.516 53.2252 146.436C53.0985 146.349 52.9518 146.256 52.7852 146.156C52.6185 146.056 52.4252 145.966 52.2052 145.886C51.9852 145.799 51.7285 145.729 51.4352 145.676C51.1485 145.616 50.8152 145.586 50.4352 145.586C49.7885 145.586 49.1952 145.703 48.6552 145.936C48.1218 146.163 47.6618 146.496 47.2752 146.936C46.8885 147.369 46.5885 147.903 46.3752 148.536C46.1618 149.163 46.0552 149.879 46.0552 150.686C46.0552 151.499 46.1685 152.223 46.3952 152.856C46.6285 153.489 46.9418 154.023 47.3352 154.456C47.7285 154.889 48.1918 155.223 48.7252 155.456C49.2585 155.683 49.8318 155.796 50.4452 155.796C50.8118 155.796 51.1418 155.776 51.4352 155.736C51.7352 155.696 52.0085 155.633 52.2552 155.546C52.5085 155.459 52.7452 155.349 52.9652 155.216C53.1918 155.076 53.4152 154.906 53.6352 154.706C53.7018 154.646 53.7718 154.599 53.8452 154.566C53.9185 154.526 53.9952 154.506 54.0752 154.506ZM68.9853 154.506C69.132 154.506 69.262 154.563 69.3753 154.676L70.4353 155.826C69.8486 156.553 69.1253 157.109 68.2653 157.496C67.412 157.883 66.3853 158.076 65.1853 158.076C64.112 158.076 63.1453 157.893 62.2853 157.526C61.432 157.159 60.702 156.649 60.0953 155.996C59.4886 155.343 59.022 154.563 58.6953 153.656C58.3753 152.749 58.2153 151.759 58.2153 150.686C58.2153 149.599 58.3886 148.606 58.7353 147.706C59.082 146.799 59.5686 146.019 60.1953 145.366C60.8286 144.713 61.582 144.206 62.4553 143.846C63.3286 143.479 64.2953 143.296 65.3553 143.296C66.4086 143.296 67.342 143.469 68.1553 143.816C68.9753 144.163 69.672 144.616 70.2453 145.176L69.3453 146.426C69.292 146.506 69.222 146.576 69.1353 146.636C69.0553 146.696 68.942 146.726 68.7953 146.726C68.6953 146.726 68.592 146.699 68.4853 146.646C68.3786 146.586 68.262 146.516 68.1353 146.436C68.0086 146.349 67.862 146.256 67.6953 146.156C67.5286 146.056 67.3353 145.966 67.1153 145.886C66.8953 145.799 66.6386 145.729 66.3453 145.676C66.0586 145.616 65.7253 145.586 65.3453 145.586C64.6986 145.586 64.1053 145.703 63.5653 145.936C63.032 146.163 62.572 146.496 62.1853 146.936C61.7986 147.369 61.4986 147.903 61.2853 148.536C61.072 149.163 60.9653 149.879 60.9653 150.686C60.9653 151.499 61.0786 152.223 61.3053 152.856C61.5386 153.489 61.852 154.023 62.2453 154.456C62.6386 154.889 63.102 155.223 63.6353 155.456C64.1686 155.683 64.742 155.796 65.3553 155.796C65.722 155.796 66.052 155.776 66.3453 155.736C66.6453 155.696 66.9186 155.633 67.1653 155.546C67.4186 155.459 67.6553 155.349 67.8753 155.216C68.102 155.076 68.3253 154.906 68.5453 154.706C68.612 154.646 68.682 154.599 68.7553 154.566C68.8286 154.526 68.9053 154.506 68.9853 154.506ZM83.258 144.286C83.318 144.186 83.388 144.086 83.468 143.986C83.5546 143.886 83.648 143.799 83.748 143.726C83.848 143.646 83.9546 143.583 84.068 143.536C84.188 143.483 84.3146 143.456 84.448 143.456H86.468V157.916H83.768V148.856C83.768 148.516 83.7746 148.163 83.788 147.796C83.808 147.423 83.8446 147.026 83.898 146.606C83.7646 146.973 83.6213 147.316 83.468 147.636C83.3146 147.949 83.1646 148.226 83.018 148.466L77.488 157.086C77.428 157.186 77.3546 157.286 77.268 157.386C77.188 157.486 77.098 157.576 76.998 157.656C76.898 157.729 76.788 157.793 76.668 157.846C76.548 157.893 76.4246 157.916 76.298 157.916H74.278V143.456H76.978V152.516C76.978 152.856 76.968 153.216 76.948 153.596C76.928 153.976 76.8913 154.376 76.838 154.796C76.9713 154.423 77.1146 154.076 77.268 153.756C77.428 153.436 77.5846 153.153 77.738 152.906L83.258 144.286ZM99.3581 157.916V151.936H97.8781C97.7181 151.936 97.5615 151.953 97.4081 151.986C97.2615 152.013 97.1181 152.066 96.9781 152.146C96.8448 152.219 96.7115 152.323 96.5781 152.456C96.4448 152.583 96.3148 152.749 96.1881 152.956L93.6381 156.986C93.4715 157.266 93.2481 157.493 92.9681 157.666C92.6881 157.833 92.3548 157.916 91.9681 157.916H89.9381L93.2581 152.836C93.6581 152.196 94.1681 151.739 94.7881 151.466C94.2548 151.326 93.7881 151.136 93.3881 150.896C92.9948 150.656 92.6681 150.376 92.4081 150.056C92.1481 149.729 91.9548 149.369 91.8281 148.976C91.7015 148.576 91.6381 148.149 91.6381 147.696C91.6381 147.076 91.7548 146.506 91.9881 145.986C92.2281 145.466 92.5715 145.019 93.0181 144.646C93.4715 144.273 94.0248 143.983 94.6781 143.776C95.3381 143.563 96.0881 143.456 96.9281 143.456H102.048V157.916H99.3581ZM94.2881 147.676C94.2881 148.003 94.3315 148.299 94.4181 148.566C94.5048 148.833 94.6515 149.059 94.8581 149.246C95.0648 149.433 95.3348 149.579 95.6681 149.686C96.0081 149.786 96.4281 149.836 96.9281 149.836H99.3581V145.546H96.9281C96.4281 145.546 96.0081 145.603 95.6681 145.716C95.3348 145.823 95.0648 145.973 94.8581 146.166C94.6581 146.359 94.5115 146.586 94.4181 146.846C94.3315 147.099 94.2881 147.376 94.2881 147.676Z" fill="black"/>
<rect x="241" y="110" width="25" height="90" fill="#F5F5F5"/>
<path d="M265.97 102H263.89C263.657 102 263.467 101.943 263.32 101.83C263.173 101.71 263.063 101.563 262.99 101.39L261.91 98.44H255.92L254.84 101.39C254.787 101.543 254.683 101.683 254.53 101.81C254.377 101.937 254.183 102 253.95 102H251.86L257.54 87.54H260.29L265.97 102ZM256.61 96.54H261.22L259.46 91.73C259.373 91.5167 259.283 91.2667 259.19 90.98C259.097 90.6867 259.003 90.37 258.91 90.03C258.817 90.37 258.723 90.6867 258.63 90.98C258.543 91.2733 258.457 91.53 258.37 91.75L256.61 96.54ZM278.258 91.17C278.258 91.85 278.101 92.4667 277.788 93.02C277.475 93.5733 277.008 94.02 276.388 94.36C276.721 94.52 277.025 94.71 277.298 94.93C277.578 95.1433 277.815 95.3833 278.008 95.65C278.208 95.91 278.361 96.1933 278.468 96.5C278.581 96.8067 278.638 97.13 278.638 97.47C278.638 98.1233 278.515 98.7333 278.268 99.3C278.028 99.8667 277.675 100.36 277.208 100.78C276.748 101.2 276.181 101.533 275.508 101.78C274.835 102.02 274.065 102.14 273.198 102.14C272.691 102.14 272.195 102.093 271.708 102C271.228 101.913 270.768 101.787 270.328 101.62C269.888 101.453 269.475 101.253 269.088 101.02C268.701 100.787 268.358 100.527 268.058 100.24L268.848 98.95C268.921 98.8567 269.008 98.78 269.108 98.72C269.215 98.6533 269.331 98.62 269.458 98.62C269.631 98.62 269.821 98.69 270.028 98.83C270.235 98.9633 270.485 99.1133 270.778 99.28C271.071 99.4467 271.418 99.6 271.818 99.74C272.225 99.8733 272.711 99.94 273.278 99.94C274.178 99.94 274.875 99.7467 275.368 99.36C275.861 98.9733 276.108 98.38 276.108 97.58C276.108 97.2533 276.041 96.96 275.908 96.7C275.775 96.44 275.585 96.22 275.338 96.04C275.091 95.86 274.791 95.7233 274.438 95.63C274.091 95.53 273.705 95.48 273.278 95.48H271.238L271.228 93.32H273.088C273.921 93.32 274.571 93.1567 275.038 92.83C275.511 92.4967 275.748 92.0167 275.748 91.39C275.748 90.8367 275.525 90.3967 275.078 90.07C274.638 89.7367 273.998 89.57 273.158 89.57C272.671 89.57 272.251 89.6233 271.898 89.73C271.551 89.8367 271.248 89.9533 270.988 90.08C270.735 90.2 270.518 90.3133 270.338 90.42C270.165 90.5267 270.008 90.58 269.868 90.58C269.735 90.58 269.621 90.5467 269.528 90.48C269.435 90.4133 269.348 90.3133 269.268 90.18L268.608 88.9C269.168 88.42 269.831 88.0467 270.598 87.78C271.371 87.5133 272.228 87.38 273.168 87.38C273.948 87.38 274.651 87.4733 275.278 87.66C275.911 87.8467 276.448 88.11 276.888 88.45C277.328 88.7833 277.665 89.1833 277.898 89.65C278.138 90.11 278.258 90.6167 278.258 91.17ZM292.039 88.37C292.099 88.27 292.169 88.17 292.249 88.07C292.336 87.97 292.429 87.8833 292.529 87.81C292.629 87.73 292.736 87.6667 292.849 87.62C292.969 87.5667 293.096 87.54 293.229 87.54H295.249V102H292.549V92.94C292.549 92.6 292.556 92.2467 292.569 91.88C292.589 91.5067 292.626 91.11 292.679 90.69C292.546 91.0567 292.403 91.4 292.249 91.72C292.096 92.0333 291.946 92.31 291.799 92.55L286.269 101.17C286.209 101.27 286.136 101.37 286.049 101.47C285.969 101.57 285.879 101.66 285.779 101.74C285.679 101.813 285.569 101.877 285.449 101.93C285.329 101.977 285.206 102 285.079 102H283.059V87.54H285.759V96.6C285.759 96.94 285.749 97.3 285.729 97.68C285.709 98.06 285.673 98.46 285.619 98.88C285.753 98.5067 285.896 98.16 286.049 97.84C286.209 97.52 286.366 97.2367 286.519 96.99L292.039 88.37ZM308.139 102V96.02H306.659C306.499 96.02 306.343 96.0367 306.189 96.07C306.043 96.0967 305.899 96.15 305.759 96.23C305.626 96.3033 305.493 96.4067 305.359 96.54C305.226 96.6667 305.096 96.8333 304.969 97.04L302.419 101.07C302.253 101.35 302.029 101.577 301.749 101.75C301.469 101.917 301.136 102 300.749 102H298.719L302.039 96.92C302.439 96.28 302.949 95.8233 303.569 95.55C303.036 95.41 302.569 95.22 302.169 94.98C301.776 94.74 301.449 94.46 301.189 94.14C300.929 93.8133 300.736 93.4533 300.609 93.06C300.483 92.66 300.419 92.2333 300.419 91.78C300.419 91.16 300.536 90.59 300.769 90.07C301.009 89.55 301.353 89.1033 301.799 88.73C302.253 88.3567 302.806 88.0667 303.459 87.86C304.119 87.6467 304.869 87.54 305.709 87.54H310.829V102H308.139ZM303.069 91.76C303.069 92.0867 303.113 92.3833 303.199 92.65C303.286 92.9167 303.433 93.1433 303.639 93.33C303.846 93.5167 304.116 93.6633 304.449 93.77C304.789 93.87 305.209 93.92 305.709 93.92H308.139V89.63H305.709C305.209 89.63 304.789 89.6867 304.449 89.8C304.116 89.9067 303.846 90.0567 303.639 90.25C303.439 90.4433 303.293 90.67 303.199 90.93C303.113 91.1833 303.069 91.46 303.069 91.76ZM265.97 132H263.89C263.657 132 263.467 131.943 263.32 131.83C263.173 131.71 263.063 131.563 262.99 131.39L261.91 128.44H255.92L254.84 131.39C254.787 131.543 254.683 131.683 254.53 131.81C254.377 131.937 254.183 132 253.95 132H251.86L257.54 117.54H260.29L265.97 132ZM256.61 126.54H261.22L259.46 121.73C259.373 121.517 259.283 121.267 259.19 120.98C259.097 120.687 259.003 120.37 258.91 120.03C258.817 120.37 258.723 120.687 258.63 120.98C258.543 121.273 258.457 121.53 258.37 121.75L256.61 126.54ZM276.601 118.63C277.495 118.657 278.318 118.827 279.071 119.14C279.825 119.453 280.475 119.873 281.021 120.4C281.568 120.92 281.995 121.527 282.301 122.22C282.608 122.913 282.761 123.653 282.761 124.44C282.761 125.233 282.608 125.98 282.301 126.68C281.995 127.373 281.568 127.983 281.021 128.51C280.475 129.037 279.825 129.457 279.071 129.77C278.318 130.083 277.495 130.253 276.601 130.28V132H274.051V130.28C273.158 130.253 272.335 130.083 271.581 129.77C270.828 129.45 270.178 129.03 269.631 128.51C269.085 127.983 268.658 127.373 268.351 126.68C268.045 125.98 267.891 125.233 267.891 124.44C267.891 123.653 268.045 122.913 268.351 122.22C268.658 121.527 269.085 120.92 269.631 120.4C270.178 119.873 270.828 119.453 271.581 119.14C272.335 118.827 273.158 118.657 274.051 118.63V116.93H276.601V118.63ZM280.081 124.44C280.081 123.933 279.995 123.457 279.821 123.01C279.655 122.557 279.418 122.163 279.111 121.83C278.805 121.49 278.438 121.22 278.011 121.02C277.585 120.82 277.115 120.713 276.601 120.7V128.2C277.115 128.187 277.585 128.08 278.011 127.88C278.438 127.68 278.805 127.413 279.111 127.08C279.418 126.74 279.655 126.347 279.821 125.9C279.995 125.447 280.081 124.96 280.081 124.44ZM270.581 124.44C270.581 124.96 270.665 125.447 270.831 125.9C270.998 126.347 271.235 126.74 271.541 127.08C271.848 127.413 272.211 127.68 272.631 127.88C273.058 128.08 273.531 128.187 274.051 128.2V120.7C273.531 120.713 273.058 120.82 272.631 121.02C272.211 121.22 271.848 121.49 271.541 121.83C271.235 122.163 270.998 122.557 270.831 123.01C270.665 123.457 270.581 123.933 270.581 124.44ZM289.675 126.91V132H286.985V117.54H291.685C292.652 117.54 293.488 117.653 294.195 117.88C294.902 118.107 295.485 118.423 295.945 118.83C296.405 119.237 296.745 119.723 296.965 120.29C297.192 120.857 297.305 121.477 297.305 122.15C297.305 122.85 297.188 123.493 296.955 124.08C296.722 124.66 296.372 125.16 295.905 125.58C295.438 126 294.852 126.327 294.145 126.56C293.445 126.793 292.625 126.91 291.685 126.91H289.675ZM289.675 124.81H291.685C292.178 124.81 292.608 124.75 292.975 124.63C293.342 124.503 293.645 124.327 293.885 124.1C294.132 123.867 294.315 123.587 294.435 123.26C294.555 122.927 294.615 122.557 294.615 122.15C294.615 121.763 294.555 121.413 294.435 121.1C294.315 120.787 294.135 120.52 293.895 120.3C293.655 120.08 293.352 119.913 292.985 119.8C292.618 119.68 292.185 119.62 291.685 119.62H289.675V124.81ZM310.348 118.37C310.408 118.27 310.478 118.17 310.558 118.07C310.644 117.97 310.738 117.883 310.838 117.81C310.938 117.73 311.044 117.667 311.158 117.62C311.278 117.567 311.404 117.54 311.538 117.54H313.558V132H310.858V122.94C310.858 122.6 310.864 122.247 310.878 121.88C310.898 121.507 310.934 121.11 310.988 120.69C310.854 121.057 310.711 121.4 310.558 121.72C310.404 122.033 310.254 122.31 310.108 122.55L304.578 131.17C304.518 131.27 304.444 131.37 304.358 131.47C304.278 131.57 304.188 131.66 304.088 131.74C303.988 131.813 303.878 131.877 303.758 131.93C303.638 131.977 303.514 132 303.388 132H301.368V117.54H304.068V126.6C304.068 126.94 304.058 127.3 304.038 127.68C304.018 128.06 303.981 128.46 303.928 128.88C304.061 128.507 304.204 128.16 304.358 127.84C304.518 127.52 304.674 127.237 304.828 126.99L310.348 118.37ZM321.468 123.6H322.828C323.101 123.6 323.338 123.553 323.538 123.46C323.738 123.367 323.925 123.193 324.098 122.94L327.268 118.26C327.401 118.047 327.558 117.873 327.738 117.74C327.918 117.607 328.135 117.54 328.388 117.54H330.688L326.758 123.34C326.591 123.593 326.395 123.803 326.168 123.97C325.948 124.137 325.708 124.267 325.448 124.36C325.848 124.473 326.185 124.653 326.458 124.9C326.738 125.14 327.005 125.473 327.258 125.9L331.048 132H328.608C328.355 132 328.141 131.933 327.968 131.8C327.801 131.667 327.645 131.47 327.498 131.21L324.418 126.35C324.338 126.21 324.251 126.097 324.158 126.01C324.071 125.917 323.975 125.843 323.868 125.79C323.768 125.73 323.651 125.69 323.518 125.67C323.391 125.65 323.245 125.64 323.078 125.64H321.468V132H318.778V117.54H321.468V123.6ZM347.064 132H344.984C344.75 132 344.56 131.943 344.414 131.83C344.267 131.71 344.157 131.563 344.084 131.39L343.004 128.44H337.014L335.934 131.39C335.88 131.543 335.777 131.683 335.624 131.81C335.47 131.937 335.277 132 335.044 132H332.954L338.634 117.54H341.384L347.064 132ZM337.704 126.54H342.314L340.554 121.73C340.467 121.517 340.377 121.267 340.284 120.98C340.19 120.687 340.097 120.37 340.004 120.03C339.91 120.37 339.817 120.687 339.724 120.98C339.637 121.273 339.55 121.53 339.464 121.75L337.704 126.54ZM262.73 147.54V149.68H256.31V153.69H261.37V155.76H256.31V159.85H262.73V162H253.61V147.54H262.73ZM267.114 162V147.54H272.094C273.041 147.54 273.851 147.63 274.524 147.81C275.197 147.99 275.747 148.247 276.174 148.58C276.607 148.913 276.924 149.317 277.124 149.79C277.324 150.263 277.424 150.797 277.424 151.39C277.424 151.73 277.374 152.057 277.274 152.37C277.174 152.677 277.017 152.967 276.804 153.24C276.597 153.507 276.331 153.75 276.004 153.97C275.684 154.19 275.301 154.377 274.854 154.53C276.841 154.977 277.834 156.05 277.834 157.75C277.834 158.363 277.717 158.93 277.484 159.45C277.251 159.97 276.911 160.42 276.464 160.8C276.017 161.173 275.467 161.467 274.814 161.68C274.161 161.893 273.414 162 272.574 162H267.114ZM269.804 155.66V159.9H272.524C273.024 159.9 273.444 159.84 273.784 159.72C274.124 159.6 274.394 159.44 274.594 159.24C274.801 159.04 274.947 158.807 275.034 158.54C275.127 158.273 275.174 157.99 275.174 157.69C275.174 157.377 275.124 157.097 275.024 156.85C274.924 156.597 274.767 156.383 274.554 156.21C274.341 156.03 274.064 155.893 273.724 155.8C273.391 155.707 272.987 155.66 272.514 155.66H269.804ZM269.804 153.8H271.944C272.864 153.8 273.557 153.633 274.024 153.3C274.497 152.967 274.734 152.437 274.734 151.71C274.734 150.957 274.521 150.42 274.094 150.1C273.667 149.78 273.001 149.62 272.094 149.62H269.804V153.8ZM284.968 156.91V162H282.278V147.54H286.978C287.945 147.54 288.781 147.653 289.488 147.88C290.195 148.107 290.778 148.423 291.238 148.83C291.698 149.237 292.038 149.723 292.258 150.29C292.485 150.857 292.598 151.477 292.598 152.15C292.598 152.85 292.481 153.493 292.248 154.08C292.015 154.66 291.665 155.16 291.198 155.58C290.731 156 290.145 156.327 289.438 156.56C288.738 156.793 287.918 156.91 286.978 156.91H284.968ZM284.968 154.81H286.978C287.471 154.81 287.901 154.75 288.268 154.63C288.635 154.503 288.938 154.327 289.178 154.1C289.425 153.867 289.608 153.587 289.728 153.26C289.848 152.927 289.908 152.557 289.908 152.15C289.908 151.763 289.848 151.413 289.728 151.1C289.608 150.787 289.428 150.52 289.188 150.3C288.948 150.08 288.645 149.913 288.278 149.8C287.911 149.68 287.478 149.62 286.978 149.62H284.968V154.81ZM310.451 154.77C310.451 155.83 310.274 156.813 309.921 157.72C309.574 158.62 309.081 159.4 308.441 160.06C307.801 160.72 307.031 161.237 306.131 161.61C305.231 161.977 304.231 162.16 303.131 162.16C302.037 162.16 301.041 161.977 300.141 161.61C299.241 161.237 298.467 160.72 297.821 160.06C297.181 159.4 296.684 158.62 296.331 157.72C295.977 156.813 295.801 155.83 295.801 154.77C295.801 153.71 295.977 152.73 296.331 151.83C296.684 150.923 297.181 150.14 297.821 149.48C298.467 148.82 299.241 148.307 300.141 147.94C301.041 147.567 302.037 147.38 303.131 147.38C303.864 147.38 304.554 147.467 305.201 147.64C305.847 147.807 306.441 148.047 306.981 148.36C307.521 148.667 308.004 149.043 308.431 149.49C308.864 149.93 309.231 150.423 309.531 150.97C309.831 151.517 310.057 152.11 310.211 152.75C310.371 153.39 310.451 154.063 310.451 154.77ZM307.701 154.77C307.701 153.977 307.594 153.267 307.381 152.64C307.167 152.007 306.864 151.47 306.471 151.03C306.077 150.59 305.597 150.253 305.031 150.02C304.471 149.787 303.837 149.67 303.131 149.67C302.424 149.67 301.787 149.787 301.221 150.02C300.661 150.253 300.181 150.59 299.781 151.03C299.387 151.47 299.084 152.007 298.871 152.64C298.657 153.267 298.551 153.977 298.551 154.77C298.551 155.563 298.657 156.277 298.871 156.91C299.084 157.537 299.387 158.07 299.781 158.51C300.181 158.943 300.661 159.277 301.221 159.51C301.787 159.743 302.424 159.86 303.131 159.86C303.837 159.86 304.471 159.743 305.031 159.51C305.597 159.277 306.077 158.943 306.471 158.51C306.864 158.07 307.167 157.537 307.381 156.91C307.594 156.277 307.701 155.563 307.701 154.77ZM326.503 162H323.793V149.61H317.513V162H314.813V147.54H326.503V162ZM344.075 162H341.995C341.762 162 341.572 161.943 341.425 161.83C341.279 161.71 341.169 161.563 341.095 161.39L340.015 158.44H334.025L332.945 161.39C332.892 161.543 332.789 161.683 332.635 161.81C332.482 161.937 332.289 162 332.055 162H329.965L335.645 147.54H338.395L344.075 162ZM334.715 156.54H339.325L337.565 151.73C337.479 151.517 337.389 151.267 337.295 150.98C337.202 150.687 337.109 150.37 337.015 150.03C336.922 150.37 336.829 150.687 336.735 150.98C336.649 151.273 336.562 151.53 336.475 151.75L334.715 156.54ZM265.97 192H263.89C263.657 192 263.467 191.943 263.32 191.83C263.173 191.71 263.063 191.563 262.99 191.39L261.91 188.44H255.92L254.84 191.39C254.787 191.543 254.683 191.683 254.53 191.81C254.377 191.937 254.183 192 253.95 192H251.86L257.54 177.54H260.29L265.97 192ZM256.61 186.54H261.22L259.46 181.73C259.373 181.517 259.283 181.267 259.19 180.98C259.097 180.687 259.003 180.37 258.91 180.03C258.817 180.37 258.723 180.687 258.63 180.98C258.543 181.273 258.457 181.53 258.37 181.75L256.61 186.54ZM276.698 186C276.811 186.213 276.915 186.437 277.008 186.67C277.108 186.897 277.205 187.127 277.298 187.36C277.391 187.113 277.488 186.877 277.588 186.65C277.688 186.417 277.795 186.193 277.908 185.98L282.178 177.97C282.231 177.87 282.288 177.79 282.348 177.73C282.408 177.67 282.471 177.627 282.538 177.6C282.611 177.573 282.691 177.557 282.778 177.55C282.865 177.543 282.968 177.54 283.088 177.54H285.118V192H282.748V182.66C282.748 182.487 282.751 182.297 282.758 182.09C282.771 181.883 282.788 181.673 282.808 181.46L278.438 189.66C278.231 190.053 277.915 190.25 277.488 190.25H277.108C276.681 190.25 276.365 190.053 276.158 189.66L271.738 181.43C271.758 181.65 271.775 181.867 271.788 182.08C271.801 182.287 271.808 182.48 271.808 182.66V192H269.438V177.54H271.468C271.588 177.54 271.691 177.543 271.778 177.55C271.865 177.557 271.941 177.573 272.008 177.6C272.081 177.627 272.145 177.67 272.198 177.73C272.258 177.79 272.315 177.87 272.368 177.97L276.698 186ZM299.464 177.54V179.68H293.044V183.69H298.104V185.76H293.044V189.85H299.464V192H290.344V177.54H299.464ZM306.538 186.91V192H303.848V177.54H308.548C309.515 177.54 310.352 177.653 311.058 177.88C311.765 178.107 312.348 178.423 312.808 178.83C313.268 179.237 313.608 179.723 313.828 180.29C314.055 180.857 314.168 181.477 314.168 182.15C314.168 182.85 314.052 183.493 313.818 184.08C313.585 184.66 313.235 185.16 312.768 185.58C312.302 186 311.715 186.327 311.008 186.56C310.308 186.793 309.488 186.91 308.548 186.91H306.538ZM306.538 184.81H308.548C309.042 184.81 309.472 184.75 309.838 184.63C310.205 184.503 310.508 184.327 310.748 184.1C310.995 183.867 311.178 183.587 311.298 183.26C311.418 182.927 311.478 182.557 311.478 182.15C311.478 181.763 311.418 181.413 311.298 181.1C311.178 180.787 310.998 180.52 310.758 180.3C310.518 180.08 310.215 179.913 309.848 179.8C309.482 179.68 309.048 179.62 308.548 179.62H306.538V184.81ZM327.211 178.37C327.271 178.27 327.341 178.17 327.421 178.07C327.508 177.97 327.601 177.883 327.701 177.81C327.801 177.73 327.908 177.667 328.021 177.62C328.141 177.567 328.268 177.54 328.401 177.54H330.421V192H327.721V182.94C327.721 182.6 327.728 182.247 327.741 181.88C327.761 181.507 327.798 181.11 327.851 180.69C327.718 181.057 327.574 181.4 327.421 181.72C327.268 182.033 327.118 182.31 326.971 182.55L321.441 191.17C321.381 191.27 321.308 191.37 321.221 191.47C321.141 191.57 321.051 191.66 320.951 191.74C320.851 191.813 320.741 191.877 320.621 191.93C320.501 191.977 320.378 192 320.251 192H318.231V177.54H320.931V186.6C320.931 186.94 320.921 187.3 320.901 187.68C320.881 188.06 320.844 188.46 320.791 188.88C320.924 188.507 321.068 188.16 321.221 187.84C321.381 187.52 321.538 187.237 321.691 186.99L327.211 178.37ZM338.331 183.6H339.691C339.965 183.6 340.201 183.553 340.401 183.46C340.601 183.367 340.788 183.193 340.961 182.94L344.131 178.26C344.265 178.047 344.421 177.873 344.601 177.74C344.781 177.607 344.998 177.54 345.251 177.54H347.551L343.621 183.34C343.455 183.593 343.258 183.803 343.031 183.97C342.811 184.137 342.571 184.267 342.311 184.36C342.711 184.473 343.048 184.653 343.321 184.9C343.601 185.14 343.868 185.473 344.121 185.9L347.911 192H345.471C345.218 192 345.005 191.933 344.831 191.8C344.665 191.667 344.508 191.47 344.361 191.21L341.281 186.35C341.201 186.21 341.115 186.097 341.021 186.01C340.935 185.917 340.838 185.843 340.731 185.79C340.631 185.73 340.515 185.69 340.381 185.67C340.255 185.65 340.108 185.64 339.941 185.64H338.331V192H335.641V177.54H338.331V183.6ZM363.927 192H361.847C361.614 192 361.424 191.943 361.277 191.83C361.13 191.71 361.02 191.563 360.947 191.39L359.867 188.44H353.877L352.797 191.39C352.744 191.543 352.64 191.683 352.487 191.81C352.334 191.937 352.14 192 351.907 192H349.817L355.497 177.54H358.247L363.927 192ZM354.567 186.54H359.177L357.417 181.73C357.33 181.517 357.24 181.267 357.147 180.98C357.054 180.687 356.96 180.37 356.867 180.03C356.774 180.37 356.68 180.687 356.587 180.98C356.5 181.273 356.414 181.53 356.327 181.75L354.567 186.54ZM265.97 222H263.89C263.657 222 263.467 221.943 263.32 221.83C263.173 221.71 263.063 221.563 262.99 221.39L261.91 218.44H255.92L254.84 221.39C254.787 221.543 254.683 221.683 254.53 221.81C254.377 221.937 254.183 222 253.95 222H251.86L257.54 207.54H260.29L265.97 222ZM256.61 216.54H261.22L259.46 211.73C259.373 211.517 259.283 211.267 259.19 210.98C259.097 210.687 259.003 210.37 258.91 210.03C258.817 210.37 258.723 210.687 258.63 210.98C258.543 211.273 258.457 211.53 258.37 211.75L256.61 216.54ZM269.438 222V207.54H274.418C275.365 207.54 276.175 207.63 276.848 207.81C277.521 207.99 278.071 208.247 278.498 208.58C278.931 208.913 279.248 209.317 279.448 209.79C279.648 210.263 279.748 210.797 279.748 211.39C279.748 211.73 279.698 212.057 279.598 212.37C279.498 212.677 279.341 212.967 279.128 213.24C278.921 213.507 278.655 213.75 278.328 213.97C278.008 214.19 277.625 214.377 277.178 214.53C279.165 214.977 280.158 216.05 280.158 217.75C280.158 218.363 280.041 218.93 279.808 219.45C279.575 219.97 279.235 220.42 278.788 220.8C278.341 221.173 277.791 221.467 277.138 221.68C276.485 221.893 275.738 222 274.898 222H269.438ZM272.128 215.66V219.9H274.848C275.348 219.9 275.768 219.84 276.108 219.72C276.448 219.6 276.718 219.44 276.918 219.24C277.125 219.04 277.271 218.807 277.358 218.54C277.451 218.273 277.498 217.99 277.498 217.69C277.498 217.377 277.448 217.097 277.348 216.85C277.248 216.597 277.091 216.383 276.878 216.21C276.665 216.03 276.388 215.893 276.048 215.8C275.715 215.707 275.311 215.66 274.838 215.66H272.128ZM272.128 213.8H274.268C275.188 213.8 275.881 213.633 276.348 213.3C276.821 212.967 277.058 212.437 277.058 211.71C277.058 210.957 276.845 210.42 276.418 210.1C275.991 209.78 275.325 209.62 274.418 209.62H272.128V213.8ZM294.532 218.59C294.679 218.59 294.809 218.647 294.922 218.76L295.982 219.91C295.396 220.637 294.672 221.193 293.812 221.58C292.959 221.967 291.932 222.16 290.732 222.16C289.659 222.16 288.692 221.977 287.832 221.61C286.979 221.243 286.249 220.733 285.642 220.08C285.036 219.427 284.569 218.647 284.242 217.74C283.922 216.833 283.762 215.843 283.762 214.77C283.762 213.683 283.936 212.69 284.282 211.79C284.629 210.883 285.116 210.103 285.742 209.45C286.376 208.797 287.129 208.29 288.002 207.93C288.876 207.563 289.842 207.38 290.902 207.38C291.956 207.38 292.889 207.553 293.702 207.9C294.522 208.247 295.219 208.7 295.792 209.26L294.892 210.51C294.839 210.59 294.769 210.66 294.682 210.72C294.602 210.78 294.489 210.81 294.342 210.81C294.242 210.81 294.139 210.783 294.032 210.73C293.926 210.67 293.809 210.6 293.682 210.52C293.556 210.433 293.409 210.34 293.242 210.24C293.076 210.14 292.882 210.05 292.662 209.97C292.442 209.883 292.186 209.813 291.892 209.76C291.606 209.7 291.272 209.67 290.892 209.67C290.246 209.67 289.652 209.787 289.112 210.02C288.579 210.247 288.119 210.58 287.732 211.02C287.346 211.453 287.046 211.987 286.832 212.62C286.619 213.247 286.512 213.963 286.512 214.77C286.512 215.583 286.626 216.307 286.852 216.94C287.086 217.573 287.399 218.107 287.792 218.54C288.186 218.973 288.649 219.307 289.182 219.54C289.716 219.767 290.289 219.88 290.902 219.88C291.269 219.88 291.599 219.86 291.892 219.82C292.192 219.78 292.466 219.717 292.712 219.63C292.966 219.543 293.202 219.433 293.422 219.3C293.649 219.16 293.872 218.99 294.092 218.79C294.159 218.73 294.229 218.683 294.302 218.65C294.376 218.61 294.452 218.59 294.532 218.59ZM309.925 207.54V209.75H305.565V222H302.875V209.75H298.515V207.54H309.925ZM316.507 216.91V222H313.817V207.54H318.517C319.484 207.54 320.32 207.653 321.027 207.88C321.734 208.107 322.317 208.423 322.777 208.83C323.237 209.237 323.577 209.723 323.797 210.29C324.024 210.857 324.137 211.477 324.137 212.15C324.137 212.85 324.02 213.493 323.787 214.08C323.554 214.66 323.204 215.16 322.737 215.58C322.27 216 321.684 216.327 320.977 216.56C320.277 216.793 319.457 216.91 318.517 216.91H316.507ZM316.507 214.81H318.517C319.01 214.81 319.44 214.75 319.807 214.63C320.174 214.503 320.477 214.327 320.717 214.1C320.964 213.867 321.147 213.587 321.267 213.26C321.387 212.927 321.447 212.557 321.447 212.15C321.447 211.763 321.387 211.413 321.267 211.1C321.147 210.787 320.967 210.52 320.727 210.3C320.487 210.08 320.184 209.913 319.817 209.8C319.45 209.68 319.017 209.62 318.517 209.62H316.507V214.81ZM339.583 222H337.503C337.27 222 337.08 221.943 336.933 221.83C336.787 221.71 336.677 221.563 336.603 221.39L335.523 218.44H329.533L328.453 221.39C328.4 221.543 328.297 221.683 328.143 221.81C327.99 221.937 327.797 222 327.563 222H325.473L331.153 207.54H333.903L339.583 222ZM330.223 216.54H334.833L333.073 211.73C332.987 211.517 332.897 211.267 332.803 210.98C332.71 210.687 332.617 210.37 332.523 210.03C332.43 210.37 332.337 210.687 332.243 210.98C332.157 211.273 332.07 211.53 331.983 211.75L330.223 216.54ZM355.083 207.54V222H352.372V209.61H348.423C348.329 211.423 348.196 212.993 348.023 214.32C347.856 215.64 347.653 216.767 347.413 217.7C347.173 218.627 346.903 219.38 346.603 219.96C346.303 220.54 345.973 220.993 345.613 221.32C345.253 221.64 344.866 221.86 344.452 221.98C344.039 222.093 343.606 222.15 343.153 222.15C342.673 222.15 342.323 222.107 342.103 222.02C341.883 221.933 341.772 221.807 341.772 221.64V219.96H342.543C342.716 219.96 342.889 219.94 343.062 219.9C343.243 219.86 343.419 219.777 343.593 219.65C343.773 219.517 343.946 219.327 344.113 219.08C344.286 218.833 344.449 218.503 344.603 218.09C344.763 217.67 344.909 217.157 345.043 216.55C345.183 215.943 345.306 215.213 345.413 214.36C345.526 213.507 345.623 212.52 345.703 211.4C345.789 210.273 345.853 208.987 345.893 207.54H355.083ZM369.285 208.37C369.345 208.27 369.415 208.17 369.495 208.07C369.582 207.97 369.675 207.883 369.775 207.81C369.875 207.73 369.982 207.667 370.095 207.62C370.215 207.567 370.342 207.54 370.475 207.54H372.495V222H369.795V212.94C369.795 212.6 369.802 212.247 369.815 211.88C369.835 211.507 369.872 211.11 369.925 210.69C369.792 211.057 369.649 211.4 369.495 211.72C369.342 212.033 369.192 212.31 369.045 212.55L363.515 221.17C363.455 221.27 363.382 221.37 363.295 221.47C363.215 221.57 363.125 221.66 363.025 221.74C362.925 221.813 362.815 221.877 362.695 221.93C362.575 221.977 362.452 222 362.325 222H360.305V207.54H363.005V216.6C363.005 216.94 362.995 217.3 362.975 217.68C362.955 218.06 362.919 218.46 362.865 218.88C362.999 218.507 363.142 218.16 363.295 217.84C363.455 217.52 363.612 217.237 363.765 216.99L369.285 208.37ZM385.385 222V216.02H383.905C383.745 216.02 383.589 216.037 383.435 216.07C383.289 216.097 383.145 216.15 383.005 216.23C382.872 216.303 382.739 216.407 382.605 216.54C382.472 216.667 382.342 216.833 382.215 217.04L379.665 221.07C379.499 221.35 379.275 221.577 378.995 221.75C378.715 221.917 378.382 222 377.995 222H375.965L379.285 216.92C379.685 216.28 380.195 215.823 380.815 215.55C380.282 215.41 379.815 215.22 379.415 214.98C379.022 214.74 378.695 214.46 378.435 214.14C378.175 213.813 377.982 213.453 377.855 213.06C377.729 212.66 377.665 212.233 377.665 211.78C377.665 211.16 377.782 210.59 378.015 210.07C378.255 209.55 378.599 209.103 379.045 208.73C379.499 208.357 380.052 208.067 380.705 207.86C381.365 207.647 382.115 207.54 382.955 207.54H388.075V222H385.385ZM380.315 211.76C380.315 212.087 380.359 212.383 380.445 212.65C380.532 212.917 380.679 213.143 380.885 213.33C381.092 213.517 381.362 213.663 381.695 213.77C382.035 213.87 382.455 213.92 382.955 213.92H385.385V209.63H382.955C382.455 209.63 382.035 209.687 381.695 209.8C381.362 209.907 381.092 210.057 380.885 210.25C380.685 210.443 380.539 210.67 380.445 210.93C380.359 211.183 380.315 211.46 380.315 211.76Z" fill="black"/>
<path d="M72.4647 265.526C71.6367 265.498 70.9429 266.147 70.9149 266.975L70.4595 280.467C70.4316 281.295 71.0801 281.989 71.9081 282.017C72.7361 282.045 73.4299 281.396 73.4578 280.568L73.8626 268.575L85.8558 268.98C86.6837 269.008 87.3776 268.359 87.4055 267.531C87.4335 266.704 86.7849 266.01 85.957 265.982L72.4647 265.526ZM301.513 265.976C273.039 296.452 232.495 315.5 187.5 315.5V318.5C233.36 318.5 274.688 299.082 303.705 268.024L301.513 265.976ZM187.5 315.5C142.517 315.5 101.982 296.463 73.5099 266.001L71.3182 268.05C100.334 299.093 141.652 318.5 187.5 318.5V315.5Z" fill="#E3000F"/>
<path d="M302.559 53.4736C303.387 53.5016 304.081 52.853 304.109 52.0251L304.564 38.5328C304.592 37.7048 303.943 37.011 303.115 36.983C302.287 36.9551 301.594 37.6036 301.566 38.4316L301.161 50.4247L289.168 50.02C288.34 49.992 287.646 50.6406 287.618 51.4685C287.59 52.2965 288.239 52.9903 289.066 53.0183L302.559 53.4736ZM73.5104 53.024C101.984 22.5477 142.528 3.5 187.524 3.5V0.5C141.663 0.5 100.336 19.9178 71.3183 50.976L73.5104 53.024ZM187.524 3.5C232.507 3.5 273.041 22.5372 301.514 52.9988L303.705 50.9502C274.689 19.9071 233.372 0.5 187.524 0.5V3.5Z" fill="#1E428F"/>
</svg>
