<svg width="94" height="102" viewBox="0 0 94 102" fill="none" xmlns="http://www.w3.org/2000/svg">
<path d="M32.9065 91.5855L66.4246 100V84.5735L70.1534 85.6094C76.5255 87.3797 82.8302 82.5878 82.8302 75.9744V66.6928L88.2701 64.8145C91.241 63.7888 92.54 60.3088 90.9678 57.5873L85.291 47.7603C85.3283 47.1178 85.3472 46.4703 85.3472 45.8184C85.3472 27.6933 70.7188 13 52.6736 13C34.6285 13 20 27.6933 20 45.8184C20 56.4817 25.0632 65.9573 32.9065 71.9518V88.7807" stroke="black" stroke-width="3"/>
<path fill-rule="evenodd" clip-rule="evenodd" d="M53 28.8848V22.9291L45.6557 20.5469L43.9521 16.4896L47.2836 9.64066L43.0057 5.4345L36.1536 8.82176L32.0271 7.14674L29.415 0H23.3579L20.9729 7.22119L16.7707 8.89621L9.805 5.62062L5.52714 9.82677L8.97214 16.5641L7.26857 20.6213L0 23.1525V29.0709L7.34429 31.4531L9.04786 35.5104L5.71643 42.3593L9.99429 46.5655L16.8464 43.1782L20.9729 44.8533L23.585 52H29.6043L31.9893 44.7788L36.1914 43.1038L43.1571 46.3794L47.435 42.1732L43.9521 35.4359L45.7314 31.3787L53 28.8103V28.8848ZM26.5 37.1854C20.2157 37.1854 15.1429 32.1976 15.1429 26.0186C15.1429 19.8397 20.2157 14.8518 26.5 14.8518C32.7843 14.8518 37.8571 19.8397 37.8571 26.0186C37.8571 32.1976 32.7843 37.1854 26.5 37.1854Z" fill="#E3000F"/>
</svg>
