<svg width="530" height="262" viewBox="0 0 530 262" fill="none" xmlns="http://www.w3.org/2000/svg">
<path d="M247.5 238L0 136L247.5 34L495 136L247.5 238Z" fill="#ECEFF5"/>
<path d="M480.5 196L431 175.5L480.5 155L530 175.5L480.5 196Z" fill="#ECEFF5"/>
<path d="M268 262L245 252.5L268 243L291 252.5L268 262Z" fill="#ECEFF5"/>
<path d="M507 220L484 210.5L507 201L530 210.5L507 220Z" fill="#ECEFF5"/>
<path d="M50.3984 146.4L123.798 115.2L248.598 62.2002" stroke="#1F438E" stroke-width="3" stroke-miterlimit="10"/>
<path d="M123.898 115.2V67.9L153.398 26L182.798 42.9V90.2" stroke="#1F438E" stroke-width="3" stroke-miterlimit="10"/>
<path d="M240.098 65.8002V18.6002L210.698 1.7002L153.398 26.0002" stroke="#1F438E" stroke-width="3" stroke-miterlimit="10"/>
<path d="M182.797 42.9001L240.097 18.6001" stroke="#1F438E" stroke-width="3" stroke-miterlimit="10"/>
<path d="M142.5 108V75.5001L161.1 67.6001V100.2" stroke="#1F438E" stroke-width="3" stroke-miterlimit="10"/>
<path d="M198.297 51.8001V59.6001L205.997 56.3001V48.6001L198.297 51.8001Z" stroke="#1F438E" stroke-width="3" stroke-miterlimit="10"/>
<path d="M216.898 44.0002V51.7002L224.598 48.4002V40.7002L216.898 44.0002Z" stroke="#1F438E" stroke-width="3" stroke-miterlimit="10"/>
<path d="M89.1992 130.7V73.3999" stroke="#1F438E" stroke-width="3" stroke-miterlimit="10"/>
<path d="M73 91.8998V62.3998C73 53.3998 80.3 42.9998 89.3 39.1998C98.3 35.3998 105.6 39.5998 105.6 48.5998V77.9998C105.6 86.9998 98.3 97.3998 89.3 101.2C80.2 105 73 100.9 73 91.8998Z" stroke="#1F438E" stroke-width="3" stroke-miterlimit="10"/>
<path d="M49.6016 163L97.6016 142.6" stroke="#1F438E" stroke-width="3" stroke-miterlimit="10"/>
<path d="M178.102 113.1L247.802 83.5" stroke="#1F438E" stroke-width="3" stroke-miterlimit="10"/>
<path d="M247.803 125.3L195.203 147.6" stroke="#1F438E" stroke-width="3" stroke-miterlimit="10"/>
<path d="M164.202 160.8L137.902 172" stroke="#1F438E" stroke-width="3" stroke-miterlimit="10"/>
<path d="M71.6016 187.4L90.2016 179.6" stroke="#1F438E" stroke-width="3" stroke-miterlimit="10"/>
<path d="M148.703 145.7L232.403 110.2" stroke="#1F438E" stroke-width="3" stroke-miterlimit="10"/>
<path d="M287.998 79.1002L248.398 62.2002" stroke="#E30614" stroke-width="3" stroke-miterlimit="10"/>
<path d="M446.599 146.4L373.099 115.2L341.199 101.7" stroke="#E30614" stroke-width="3" stroke-miterlimit="10"/>
<path d="M407.699 130.7V73.3999" stroke="#E30614" stroke-width="3" stroke-miterlimit="10"/>
<path d="M423.998 91.8998V62.3998C423.998 53.3998 416.698 42.9998 407.698 39.1998C398.698 35.3998 391.398 39.5998 391.398 48.5998V77.9998C391.398 86.9998 398.698 97.3998 407.698 101.2C416.698 105 423.998 100.9 423.998 91.8998Z" stroke="#E30614" stroke-width="3" stroke-miterlimit="10"/>
<path d="M367.699 112.7V55.3999" stroke="#E30614" stroke-width="3" stroke-miterlimit="10"/>
<path d="M383.998 73.8998V44.3998C383.998 35.3998 376.698 24.9998 367.698 21.1998C358.698 17.3998 351.398 21.5998 351.398 30.5998V59.9998C351.398 68.9998 358.698 79.3998 367.698 83.1998C376.698 86.9998 383.998 82.8998 383.998 73.8998Z" stroke="#E30614" stroke-width="3" stroke-miterlimit="10"/>
<path d="M270.301 71.6004V32.9004" stroke="#E30614" stroke-width="3" stroke-miterlimit="10"/>
<path d="M281.301 45.4002V25.6002C281.301 19.5002 276.401 12.6002 270.301 10.0002C264.201 7.4002 259.301 10.3002 259.301 16.3002V36.1002C259.301 42.2002 264.201 49.1002 270.301 51.7002C276.401 54.3002 281.301 51.5002 281.301 45.4002Z" stroke="#E30614" stroke-width="3" stroke-miterlimit="10"/>
<path d="M299.244 108.523C301.175 106.959 300.824 103.325 298.46 100.407C296.097 97.489 292.615 96.3915 290.684 97.9558C288.753 99.52 289.104 103.154 291.467 106.072C293.831 108.99 297.313 110.087 299.244 108.523Z" stroke="#E30614" stroke-width="3" stroke-miterlimit="10"/>
<path d="M305.854 116.682C310.704 112.754 309.759 103.551 303.746 96.1274C297.732 88.7035 288.926 85.8695 284.077 89.7975C279.228 93.7254 280.172 102.928 286.186 110.352C292.199 117.776 301.005 120.61 305.854 116.682Z" stroke="#E30614" stroke-width="3" stroke-miterlimit="10"/>
<path d="M346.44 131.379C347.856 130.231 347.595 127.562 345.857 125.417C344.119 123.271 341.562 122.461 340.146 123.609C338.73 124.756 338.991 127.425 340.729 129.571C342.467 131.716 345.024 132.526 346.44 131.379Z" stroke="#E30614" stroke-width="3" stroke-miterlimit="10"/>
<path d="M351.287 137.361C354.849 134.476 354.158 127.719 349.743 122.269C345.329 116.82 338.862 114.74 335.301 117.626C331.739 120.511 332.43 127.268 336.845 132.718C341.26 138.167 347.726 140.247 351.287 137.361Z" stroke="#E30614" stroke-width="3" stroke-miterlimit="10"/>
<path d="M308.301 113.4L333.001 123.9" stroke="#E30614" stroke-width="3" stroke-miterlimit="10"/>
<path d="M327.3 121.4L322.6 102.9L320 92.5998L318 84.9998L314 69.2998L288 58.2998V79.0998V88.1998" stroke="#E30614" stroke-width="3" stroke-miterlimit="10"/>
<path d="M318 85C324.2 88.5 329.6 92.2 334 95.7C336.7 97.8 339.1 99.9 341.2 101.7C347 106.9 350 110.6 350 110.6L347.4 119.9" stroke="#E30614" stroke-width="3" stroke-miterlimit="10"/>
<path d="M353 115.9V121.9" stroke="#E30614" stroke-width="3" stroke-miterlimit="10"/>
<path d="M334 95.6999V92.2999C334 89.2999 336.4 87.8999 339.4 89.1999" stroke="#E30614" stroke-width="3" stroke-miterlimit="10"/>
<path d="M322.602 102.9L311.602 86.7002" stroke="#E30614" stroke-width="3" stroke-miterlimit="10"/>
<path d="M315 84.7002L308 88.8002" stroke="#E30614" stroke-width="3" stroke-miterlimit="10"/>
<path d="M317.1 117.1L311.5 94.6998L296.5 85.0998L288 58.2998" stroke="#E30614" stroke-width="3" stroke-miterlimit="10"/>
<path d="M288 53.5L319.5 66.9" stroke="#E30614" stroke-width="3" stroke-miterlimit="10"/>
<path d="M278 194.1V178.8" stroke="#E30614" stroke-width="3" stroke-miterlimit="10"/>
<path d="M271.199 177.1L274.999 180.8" stroke="#E30614" stroke-width="3" stroke-miterlimit="10"/>
<path d="M284.7 177.1L281 180.8" stroke="#E30614" stroke-width="3" stroke-miterlimit="10"/>
<path d="M271.199 182.1L274.999 185.8" stroke="#E30614" stroke-width="3" stroke-miterlimit="10"/>
<path d="M284.7 182.1L281 185.8" stroke="#E30614" stroke-width="3" stroke-miterlimit="10"/>
<path d="M309 181.1V165.8" stroke="#E30614" stroke-width="3" stroke-miterlimit="10"/>
<path d="M302.199 164.1L305.999 167.8" stroke="#E30614" stroke-width="3" stroke-miterlimit="10"/>
<path d="M315.7 164.1L312 167.8" stroke="#E30614" stroke-width="3" stroke-miterlimit="10"/>
<path d="M302.199 169.1L305.999 172.8" stroke="#E30614" stroke-width="3" stroke-miterlimit="10"/>
<path d="M315.7 169.1L312 172.8" stroke="#E30614" stroke-width="3" stroke-miterlimit="10"/>
<path d="M340 168.1V152.8" stroke="#E30614" stroke-width="3" stroke-miterlimit="10"/>
<path d="M333.199 151.1L336.999 154.8" stroke="#E30614" stroke-width="3" stroke-miterlimit="10"/>
<path d="M346.7 151.1L343 154.8" stroke="#E30614" stroke-width="3" stroke-miterlimit="10"/>
<path d="M333.199 156.1L336.999 159.8" stroke="#E30614" stroke-width="3" stroke-miterlimit="10"/>
<path d="M346.7 156.1L343 159.8" stroke="#E30614" stroke-width="3" stroke-miterlimit="10"/>
<path d="M230 174.1V158.8" stroke="#E30614" stroke-width="3" stroke-miterlimit="10"/>
<path d="M223.199 157.1L226.999 160.8" stroke="#E30614" stroke-width="3" stroke-miterlimit="10"/>
<path d="M236.7 157.1L233 160.8" stroke="#E30614" stroke-width="3" stroke-miterlimit="10"/>
<path d="M223.199 162.1L226.999 165.8" stroke="#E30614" stroke-width="3" stroke-miterlimit="10"/>
<path d="M236.7 162.1L233 165.8" stroke="#E30614" stroke-width="3" stroke-miterlimit="10"/>
<path d="M261 161.1V145.8" stroke="#E30614" stroke-width="3" stroke-miterlimit="10"/>
<path d="M254.199 144.1L257.999 147.8" stroke="#E30614" stroke-width="3" stroke-miterlimit="10"/>
<path d="M267.7 144.1L264 147.8" stroke="#E30614" stroke-width="3" stroke-miterlimit="10"/>
<path d="M254.199 149.1L257.999 152.8" stroke="#E30614" stroke-width="3" stroke-miterlimit="10"/>
<path d="M267.7 149.1L264 152.8" stroke="#E30614" stroke-width="3" stroke-miterlimit="10"/>
<path d="M292 148.1V132.8" stroke="#E30614" stroke-width="3" stroke-miterlimit="10"/>
<path d="M285.199 131.1L288.999 134.8" stroke="#E30614" stroke-width="3" stroke-miterlimit="10"/>
<path d="M298.7 131.1L295 134.8" stroke="#E30614" stroke-width="3" stroke-miterlimit="10"/>
<path d="M285.199 136.1L288.999 139.8" stroke="#E30614" stroke-width="3" stroke-miterlimit="10"/>
<path d="M298.7 136.1L295 139.8" stroke="#E30614" stroke-width="3" stroke-miterlimit="10"/>
<path d="M357 201.1V185.8" stroke="#E30614" stroke-width="3" stroke-miterlimit="10"/>
<path d="M350.199 184.1L353.999 187.8" stroke="#E30614" stroke-width="3" stroke-miterlimit="10"/>
<path d="M363.7 184.1L360 187.8" stroke="#E30614" stroke-width="3" stroke-miterlimit="10"/>
<path d="M350.199 189.1L353.999 192.8" stroke="#E30614" stroke-width="3" stroke-miterlimit="10"/>
<path d="M363.7 189.1L360 192.8" stroke="#E30614" stroke-width="3" stroke-miterlimit="10"/>
<path d="M388 188.1V172.8" stroke="#E30614" stroke-width="3" stroke-miterlimit="10"/>
<path d="M381.199 171.1L384.999 174.8" stroke="#E30614" stroke-width="3" stroke-miterlimit="10"/>
<path d="M394.7 171.1L391 174.8" stroke="#E30614" stroke-width="3" stroke-miterlimit="10"/>
<path d="M381.199 176.1L384.999 179.8" stroke="#E30614" stroke-width="3" stroke-miterlimit="10"/>
<path d="M394.7 176.1L391 179.8" stroke="#E30614" stroke-width="3" stroke-miterlimit="10"/>
</svg>
