<svg width="140" height="140" viewBox="0 0 140 140" fill="none" xmlns="http://www.w3.org/2000/svg">
<path fill-rule="evenodd" clip-rule="evenodd" d="M125.5 100.143L118 96.0714L125.5 92L133 96.0714L125.5 100.143ZM114.5 119L97 109.5L114.5 100L132 109.5L114.5 119ZM7 106.071L14.5 110.143L22 106.071L14.5 102L7 106.071ZM27 104L22 101.5L27 99L32 101.5L27 104ZM80 104.071L87.5 108.143L95 104.071L87.5 100L80 104.071Z" fill="#ECEFF5"/>
<path fill-rule="evenodd" clip-rule="evenodd" d="M18 30.657V93.4889C32.0962 87.7098 47.9038 87.7098 62 93.4889V30.657C47.948 24.6537 32.052 24.6537 18 30.657ZM64 30.657V93.4889C78.0962 87.7098 93.9038 87.7098 108 93.4889V70.9903C101.328 70.7278 96 65.2362 96 58.5001C96 51.764 101.328 46.2723 108 46.0099V30.657C93.948 24.6537 78.052 24.6537 64 30.657ZM110 46.0892C116.196 46.8302 121 52.1042 121 58.5001C121 61.5919 119.877 64.4215 118.018 66.6036L129.207 77.793L127.793 79.2072L116.604 68.0179C114.78 69.5722 112.504 70.6116 110 70.911V96.5253L108.329 95.7986C94.0868 89.6065 77.9132 89.6065 63.6713 95.7986L63 96.0905L62.3287 95.7986C48.0868 89.6065 31.9132 89.6065 17.6713 95.7986L16 96.5253V29.3444L16.8739 28.9645C31.5823 22.5695 48.2802 22.5513 63 28.9098C77.7198 22.5513 94.4177 22.5695 109.126 28.9645L110 29.3444V46.0892ZM108.5 48.0001C102.701 48.0001 98 52.7011 98 58.5001C98 64.2991 102.701 69.0001 108.5 69.0001C114.299 69.0001 119 64.2991 119 58.5001C119 52.7011 114.299 48.0001 108.5 48.0001Z" fill="black"/>
</svg>
