<svg width="140" height="28" viewBox="0 0 140 28" fill="none" xmlns="http://www.w3.org/2000/svg">
<path d="M134.544 20.0915H5V28H134.544V20.0915Z" fill="#FFF243"/>
<path fill-rule="evenodd" clip-rule="evenodd" d="M63.6784 23.3602C64.7089 23.3602 65.6197 23.0271 66.4107 22.3609V23.2821H68.9245V17.3802H64.3654V19.5661H66.2858C65.6093 20.2947 64.8286 20.6591 63.9438 20.6591C63.5587 20.6591 63.21 20.5914 62.8977 20.4561C62.5854 20.3104 62.3148 20.1126 62.0858 19.8627C61.8672 19.6025 61.6955 19.2955 61.5706 18.9416C61.4457 18.5877 61.3832 18.1922 61.3832 17.7549C61.3832 17.3282 61.4457 16.9379 61.5706 16.584C61.6955 16.2197 61.8672 15.9073 62.0858 15.6471C62.3044 15.3869 62.5646 15.1839 62.8665 15.0382C63.1684 14.8925 63.5015 14.8196 63.8657 14.8196C64.355 14.8196 64.8182 14.955 65.2553 15.2256C65.6925 15.4858 66.0204 15.8345 66.239 16.2717L68.503 14.5386C68.3052 14.1638 68.0501 13.8308 67.7379 13.5393C67.4256 13.2375 67.0717 12.9825 66.6762 12.7742C66.291 12.5557 65.8695 12.3944 65.4115 12.2903C64.9535 12.1758 64.4747 12.1185 63.975 12.1185C63.1736 12.1185 62.4241 12.2643 61.7267 12.5557C61.0397 12.8367 60.4412 13.2271 59.9312 13.7267C59.4211 14.216 59.0204 14.7988 58.729 15.4754C58.4375 16.1416 58.2917 16.865 58.2917 17.6456C58.2917 18.5512 58.4375 19.3579 58.729 20.0658C59.0204 20.7735 59.4107 21.3721 59.8999 21.8613C60.3892 22.3505 60.9617 22.7252 61.6174 22.9855C62.2732 23.2353 62.9602 23.3602 63.6784 23.3602ZM23.7877 22.8918C24.4747 23.2145 25.2397 23.3758 26.0828 23.3758C26.9052 23.3758 27.6598 23.2197 28.3468 22.9074C29.0442 22.5951 29.6427 22.184 30.1424 21.674C30.642 21.1535 31.0323 20.5602 31.3134 19.894C31.5944 19.2174 31.7349 18.5148 31.7349 17.7862C31.7349 17.0783 31.5996 16.3862 31.329 15.7096C31.0687 15.033 30.694 14.4293 30.2048 13.8984C29.7156 13.3676 29.1275 12.9408 28.4405 12.6181C27.7535 12.2954 26.9884 12.1341 26.1453 12.1341C25.323 12.1341 24.5632 12.2903 23.8657 12.6025C23.1788 12.9044 22.5803 13.3155 22.0702 13.836C21.5706 14.3461 21.1802 14.9393 20.8992 15.6159C20.6182 16.2925 20.4776 16.9951 20.4776 17.7237C20.4776 18.4419 20.613 19.1393 20.8836 19.8159C21.1542 20.4925 21.5341 21.0962 22.0234 21.6271C22.5126 22.1475 23.1007 22.5691 23.7877 22.8918ZM23.7252 18.8479C23.6211 18.494 23.5691 18.1297 23.5691 17.7549C23.5691 17.3907 23.6159 17.0367 23.7096 16.6933C23.8137 16.3393 23.9698 16.0271 24.178 15.7564C24.3862 15.4754 24.6464 15.2516 24.9587 15.0851C25.2814 14.9185 25.6613 14.8352 26.0985 14.8352C26.5252 14.8352 26.8948 14.9185 27.207 15.0851C27.5297 15.2412 27.7951 15.4546 28.0033 15.7252C28.2219 15.9854 28.3832 16.2925 28.4873 16.6464C28.5914 16.9899 28.6435 17.349 28.6435 17.7237C28.6435 18.0881 28.5914 18.4471 28.4873 18.8011C28.3937 19.155 28.2427 19.4724 28.0345 19.7534C27.8368 20.0241 27.5765 20.2479 27.2539 20.4248C26.9312 20.5914 26.5513 20.6747 26.1141 20.6747C25.6769 20.6747 25.297 20.5914 24.9743 20.4248C24.662 20.2584 24.4018 20.0397 24.1936 19.7691C23.9854 19.4985 23.8293 19.1914 23.7252 18.8479ZM9.91016 12.1966V23.2821H14.1726C15.0157 23.2821 15.7808 23.152 16.4678 22.8918C17.1548 22.6211 17.7429 22.2464 18.2321 21.7676C18.7213 21.2784 19.0961 20.6955 19.3563 20.0189C19.6269 19.3319 19.7622 18.5669 19.7622 17.7237C19.7622 16.9639 19.6425 16.2508 19.4031 15.5847C19.1637 14.9081 18.8098 14.32 18.3414 13.8203C17.873 13.3207 17.2901 12.9252 16.5927 12.6338C15.8953 12.3423 15.0886 12.1966 14.1726 12.1966H9.91016ZM16.499 16.5527C16.6135 16.9066 16.6708 17.2969 16.6708 17.7237C16.6708 18.1401 16.6135 18.5252 16.499 18.8791C16.3949 19.233 16.2336 19.5401 16.015 19.8003C15.8068 20.0605 15.5466 20.2635 15.2343 20.4093C14.9221 20.5549 14.5682 20.6279 14.1726 20.6279H12.9548V14.8509H14.1726C14.5578 14.8509 14.9065 14.9237 15.2187 15.0695C15.531 15.2048 15.7912 15.3973 15.9994 15.6471C16.218 15.897 16.3845 16.1988 16.499 16.5527ZM33.0253 23.2821V12.1966H36.07V20.6279H41.0975V23.2821H33.0253ZM42.1586 12.1966V23.2821H45.2032V12.1966H42.1586ZM50.1586 17.833V23.2821H47.114V12.1966H49.4873L53.9371 17.833V12.1966H56.9817V23.2821H54.5616L50.1586 17.833ZM78.3278 20.6279V23.2821H70.4274V12.1966H78.1873V14.8509H73.472V16.4122H77.5003V18.8791H73.472V20.6279H78.3278ZM79.7436 12.1966V23.2821H82.7882V19.8784H83.928L85.8797 23.2821H89.3147L86.9726 19.207C87.4723 18.8531 87.8626 18.4003 88.1437 17.8487C88.4247 17.2866 88.5652 16.6828 88.5652 16.0374C88.5652 15.5691 88.4715 15.1059 88.2842 14.6479C88.0968 14.1795 87.8366 13.7683 87.5035 13.4145C87.1808 13.0501 86.7905 12.7587 86.3325 12.5401C85.8745 12.3111 85.3749 12.1966 84.8336 12.1966H79.7436ZM84.7087 17.2241H82.7882V14.8509H84.6306C84.818 14.8509 85.0053 14.955 85.1927 15.1631C85.3801 15.3609 85.4737 15.6524 85.4737 16.0374C85.4737 16.4122 85.3905 16.7036 85.2239 16.9119C85.0678 17.12 84.8961 17.2241 84.7087 17.2241ZM100.191 12.2746H100.972L102.627 16.3029L104.282 12.2746H105.062L103.111 16.943L105.437 22.3453L109.684 12.1966H110.558L105.812 23.2821H105.078L102.642 17.5832L100.191 23.2821H99.4572L94.7263 12.1966H95.5851L99.8475 22.3453L102.143 16.943L100.191 12.2746ZM119.614 22.5639V23.2821H112.228V12.1966H119.473V12.9148H113.025V17.2709H118.661V17.958H113.025V22.5639H119.614ZM129.72 21.549C129.876 21.1951 129.954 20.8152 129.954 20.4093C129.954 19.7534 129.767 19.1706 129.392 18.6605C129.028 18.1401 128.528 17.7862 127.893 17.5988C128.393 17.3802 128.783 17.0367 129.065 16.5683C129.346 16.0999 129.486 15.5847 129.486 15.0226C129.486 14.6791 129.424 14.3408 129.299 14.0077C129.184 13.6642 129.018 13.3623 128.799 13.1021C128.58 12.8315 128.315 12.6129 128.003 12.4464C127.691 12.2799 127.342 12.1966 126.957 12.1966H121.789V23.2821H126.972C127.378 23.2821 127.763 23.2092 128.128 23.0636C128.492 22.9178 128.81 22.7149 129.08 22.4546C129.351 22.1944 129.564 21.8925 129.72 21.549ZM129.002 19.4568C129.106 19.7274 129.158 20.0085 129.158 20.3C129.158 20.5914 129.101 20.8724 128.986 21.143C128.872 21.4137 128.716 21.6583 128.518 21.8769C128.331 22.0851 128.102 22.2516 127.831 22.3765C127.571 22.5015 127.285 22.5639 126.972 22.5639H122.585V18.0204H127.082C127.373 18.0204 127.644 18.0828 127.893 18.2077C128.154 18.3326 128.378 18.5044 128.565 18.723C128.752 18.9312 128.898 19.1758 129.002 19.4568ZM122.585 17.349V12.9148H126.738C127.03 12.9148 127.295 12.9773 127.534 13.1021C127.774 13.2167 127.977 13.378 128.143 13.5862C128.32 13.784 128.456 14.0182 128.549 14.2888C128.653 14.549 128.705 14.8301 128.705 15.1319C128.705 15.413 128.653 15.6887 128.549 15.9594C128.445 16.23 128.299 16.4694 128.112 16.6776C127.935 16.8754 127.722 17.0367 127.472 17.1616C127.222 17.2866 126.946 17.349 126.644 17.349H122.585Z" fill="black"/>
<g opacity="0.5">
<path d="M10.5041 7.25461V0.657777H12.4584C13.2814 0.657777 13.8772 0.827782 14.2458 1.16779C14.6144 1.5078 14.7987 2.04006 14.7987 2.76457C14.7987 3.55898 14.6112 4.13414 14.2363 4.49004C13.8645 4.84276 13.2591 5.01912 12.4202 5.01912H11.3859V7.25461H10.5041ZM11.3859 4.21835H12.2343C12.6983 4.21835 13.0367 4.17386 13.2496 4.08489C13.4657 3.99273 13.623 3.84656 13.7215 3.64637C13.8232 3.443 13.874 3.15542 13.874 2.78363C13.874 2.32287 13.7596 1.98604 13.5308 1.77314C13.302 1.56023 12.9112 1.45378 12.3583 1.45378H11.3859V4.21835Z" fill="black"/>
<path d="M15.6948 5.84849C15.6948 5.5053 15.7615 5.2209 15.895 4.99529C16.0316 4.7665 16.2271 4.58696 16.4813 4.45667C16.7387 4.32321 17.1105 4.22788 17.5966 4.17068L18.8264 4.06105V3.81796C18.8264 3.43347 18.7184 3.17131 18.5023 3.03149C18.2894 2.89167 17.9938 2.82177 17.6157 2.82177C17.2789 2.82177 17.0183 2.88055 16.834 2.99813C16.6529 3.1157 16.5226 3.24281 16.4431 3.37945L15.7711 2.96953C15.9236 2.69307 16.1556 2.48176 16.467 2.33558C16.7816 2.18623 17.1708 2.11156 17.6348 2.11156C18.3529 2.11156 18.8677 2.24184 19.1791 2.50241C19.4905 2.76298 19.6462 3.21421 19.6462 3.8561V7.25461H18.8264V6.6302C18.5722 6.85263 18.3164 7.03694 18.059 7.18311C17.8016 7.32928 17.5108 7.40237 17.1867 7.40237C16.7101 7.40237 16.3415 7.25778 16.0809 6.96862C15.8235 6.67627 15.6948 6.3029 15.6948 5.84849ZM16.5432 5.82942C16.5432 6.12813 16.6179 6.34262 16.7673 6.4729C16.9166 6.60319 17.1406 6.66833 17.4393 6.66833C17.5633 6.66833 17.6856 6.64608 17.8064 6.6016C17.9271 6.55393 18.0463 6.49673 18.1638 6.43C18.2814 6.36009 18.3942 6.28224 18.5023 6.19644C18.6135 6.10747 18.7215 6.02167 18.8264 5.93905V4.71883L18.0256 4.79509C17.4822 4.84276 17.0993 4.94921 16.8769 5.11445C16.6545 5.27651 16.5432 5.51484 16.5432 5.82942Z" fill="black"/>
<path d="M20.6615 6.48243L21.3383 6.07252C21.4877 6.28224 21.6466 6.43795 21.815 6.53963C21.9834 6.63814 22.2011 6.68739 22.468 6.68739C22.8271 6.68739 23.121 6.61749 23.3498 6.47767C23.5818 6.33785 23.6978 6.12495 23.6978 5.83896C23.6978 5.26698 23.3562 4.98099 22.673 4.98099H21.5814V4.30891H22.6253C22.9971 4.30891 23.2704 4.25648 23.4451 4.15162C23.6199 4.04675 23.7073 3.87675 23.7073 3.6416C23.7073 3.09504 23.3037 2.82177 22.4966 2.82177C22.2233 2.82177 22.0041 2.87579 21.8388 2.98383C21.6736 3.09187 21.529 3.24281 21.4051 3.43664L20.733 3.02672C21.0825 2.41661 21.6672 2.11156 22.4871 2.11156C23.1575 2.11156 23.6612 2.24661 23.998 2.51671C24.3381 2.78681 24.5081 3.15224 24.5081 3.613C24.5081 3.9117 24.4302 4.15638 24.2745 4.34704C24.1188 4.53453 23.9361 4.66163 23.7263 4.72836C23.9234 4.79827 24.1013 4.93173 24.2602 5.12875C24.4191 5.32259 24.4985 5.58792 24.4985 5.92475C24.4985 6.90983 23.8185 7.40237 22.4585 7.40237C21.9691 7.40237 21.5862 7.31657 21.3097 7.14498C21.0333 6.97021 20.8172 6.74936 20.6615 6.48243Z" fill="black"/>
<path d="M25.8141 9.13737V2.25455H26.6339V2.75503C26.8214 2.57391 27.047 2.42138 27.3108 2.29745C27.5745 2.17352 27.8573 2.11156 28.1592 2.11156C28.7534 2.11156 29.2158 2.33717 29.5462 2.7884C29.8767 3.23645 30.042 3.87993 30.042 4.71883C30.042 5.53867 29.8624 6.19168 29.5033 6.67786C29.1474 7.16086 28.6565 7.40237 28.0305 7.40237C27.5316 7.40237 27.0661 7.21647 26.6339 6.84469V9.13737H25.8141ZM26.6339 6.12971C27.0597 6.48879 27.4887 6.66833 27.9209 6.66833C28.2927 6.66833 28.5977 6.51262 28.836 6.20121C29.0744 5.8898 29.1935 5.40203 29.1935 4.7379C29.1935 3.47319 28.7963 2.84083 28.0019 2.84083C27.7413 2.84083 27.4919 2.90597 27.2536 3.03626C27.0152 3.16654 26.8087 3.31589 26.6339 3.48431V6.12971Z" fill="black"/>
<path d="M31.1192 5.84849C31.1192 5.5053 31.1859 5.2209 31.3194 4.99529C31.456 4.7665 31.6514 4.58696 31.9057 4.45667C32.163 4.32321 32.5348 4.22788 33.021 4.17068L34.2508 4.06105V3.81796C34.2508 3.43347 34.1427 3.17131 33.9267 3.03149C33.7138 2.89167 33.4182 2.82177 33.0401 2.82177C32.7033 2.82177 32.4427 2.88055 32.2584 2.99813C32.0773 3.1157 31.947 3.24281 31.8675 3.37945L31.1954 2.96953C31.348 2.69307 31.5799 2.48176 31.8914 2.33558C32.2059 2.18623 32.5952 2.11156 33.0592 2.11156C33.7773 2.11156 34.2921 2.24184 34.6035 2.50241C34.9149 2.76298 35.0706 3.21421 35.0706 3.8561V7.25461H34.2508V6.6302C33.9966 6.85263 33.7408 7.03694 33.4834 7.18311C33.226 7.32928 32.9352 7.40237 32.6111 7.40237C32.1345 7.40237 31.7658 7.25778 31.5053 6.96862C31.2479 6.67627 31.1192 6.3029 31.1192 5.84849ZM31.9676 5.82942C31.9676 6.12813 32.0423 6.34262 32.1916 6.4729C32.341 6.60319 32.565 6.66833 32.8637 6.66833C32.9877 6.66833 33.11 6.64608 33.2307 6.6016C33.3515 6.55393 33.4707 6.49673 33.5882 6.43C33.7058 6.36009 33.8186 6.28224 33.9267 6.19644C34.0379 6.10747 34.1459 6.02167 34.2508 5.93905V4.71883L33.45 4.79509C32.9066 4.84276 32.5237 4.94921 32.3013 5.11445C32.0788 5.27651 31.9676 5.51484 31.9676 5.82942Z" fill="black"/>
<path d="M36.3194 4.14208C36.3194 3.5288 36.3512 3.00766 36.4148 2.57867C36.4815 2.14969 36.5832 1.78902 36.7198 1.49668C36.8565 1.20433 37.0312 0.970776 37.2441 0.796005C37.4602 0.618056 37.7192 0.478239 38.0211 0.376553C38.3261 0.274868 38.6773 0.198604 39.0745 0.147761C39.4717 0.0969188 39.9213 0.047665 40.4234 0V0.781705C39.8895 0.819837 39.4208 0.865913 39.0173 0.919934C38.6137 0.970776 38.2753 1.07564 38.002 1.23452C37.7287 1.39023 37.5238 1.61743 37.3871 1.91613C37.2505 2.21483 37.1822 2.62475 37.1822 3.14589C37.3887 2.94252 37.6382 2.78204 37.9305 2.66447C38.2229 2.54372 38.5263 2.48334 38.8409 2.48334C40.1279 2.48334 40.7713 3.2444 40.7713 4.7665C40.7713 5.58633 40.587 6.2314 40.2184 6.70169C39.853 7.16881 39.335 7.40237 38.6646 7.40237C37.8765 7.40237 37.2886 7.12432 36.9009 6.56823C36.5133 6.01214 36.3194 5.20342 36.3194 4.14208ZM37.1726 4.34704C37.1726 5.10651 37.3029 5.69279 37.5635 6.10588C37.8272 6.51898 38.1974 6.72553 38.6741 6.72553C39.0649 6.72553 39.37 6.5444 39.5893 6.18214C39.8117 5.81671 39.9229 5.35754 39.9229 4.80463C39.9229 4.25807 39.8212 3.84815 39.6178 3.57487C39.4177 3.30159 39.0967 3.16495 38.655 3.16495C38.3976 3.16495 38.1355 3.23645 37.8685 3.37945C37.6016 3.52244 37.3728 3.70833 37.1822 3.93713L37.1726 4.14208V4.34704Z" fill="black"/>
<path d="M41.7103 4.7665C41.7103 3.87357 41.8994 3.20785 42.2776 2.76933C42.6589 2.33082 43.2054 2.11156 43.9172 2.11156C44.6354 2.11156 45.1804 2.33558 45.5521 2.78363C45.9239 3.22851 46.1098 3.88946 46.1098 4.7665C46.1098 5.634 45.9223 6.29019 45.5474 6.73506C45.1756 7.17993 44.6322 7.40237 43.9172 7.40237C43.2023 7.40237 42.6557 7.18311 42.2776 6.74459C41.8994 6.3029 41.7103 5.64353 41.7103 4.7665ZM42.5588 4.7665C42.5588 5.41792 42.6652 5.90092 42.8781 6.21551C43.0942 6.5301 43.4406 6.68739 43.9172 6.68739C44.3716 6.68739 44.7085 6.53169 44.9277 6.22028C45.1502 5.90887 45.2614 5.42427 45.2614 4.7665C45.2614 4.08648 45.1486 3.59235 44.923 3.28412C44.7005 2.97588 44.3653 2.82177 43.9172 2.82177C43.4565 2.82177 43.1149 2.97747 42.8924 3.28888C42.67 3.59712 42.5588 4.08965 42.5588 4.7665Z" fill="black"/>
<path d="M46.596 2.91233V2.25455H50.5999V2.91233H48.9983V7.25461H48.1975V2.91233H46.596Z" fill="black"/>
<path d="M51.4864 7.25461V2.25455H52.2872V4.38518H52.9879C53.1754 4.38518 53.3342 4.31845 53.4645 4.18498C53.5948 4.05152 53.7235 3.8275 53.8506 3.51291C53.9809 3.19514 54.1064 2.77569 54.2272 2.25455H55.0613C54.9405 2.79793 54.8119 3.2444 54.6752 3.59394C54.5418 3.94348 54.4083 4.20246 54.2748 4.37088C54.1445 4.53929 53.9793 4.64733 53.7791 4.695C54.0174 4.76491 54.2113 4.87771 54.3606 5.03342C54.51 5.18913 54.6466 5.42268 54.7705 5.73409C54.8945 6.04233 55.0454 6.54916 55.2234 7.25461H54.394C54.2828 6.86375 54.1827 6.5301 54.0937 6.25364C54.0079 5.97719 53.9126 5.75316 53.8077 5.58157C53.706 5.4068 53.5853 5.28128 53.4455 5.20501C53.3056 5.12557 53.1277 5.08585 52.9116 5.08585H52.2872V7.25461H51.4864Z" fill="black"/>
<path d="M55.8001 5.84849C55.8001 5.5053 55.8668 5.2209 56.0003 4.99529C56.1369 4.7665 56.3324 4.58696 56.5866 4.45667C56.844 4.32321 57.2158 4.22788 57.7019 4.17068L58.9317 4.06105V3.81796C58.9317 3.43347 58.8236 3.17131 58.6076 3.03149C58.3947 2.89167 58.0991 2.82177 57.721 2.82177C57.3842 2.82177 57.1236 2.88055 56.9393 2.99813C56.7582 3.1157 56.6279 3.24281 56.5484 3.37945L55.8764 2.96953C56.0289 2.69307 56.2609 2.48176 56.5723 2.33558C56.8869 2.18623 57.2761 2.11156 57.7401 2.11156C58.4582 2.11156 58.973 2.24184 59.2844 2.50241C59.5958 2.76298 59.7515 3.21421 59.7515 3.8561V7.25461H58.9317V6.6302C58.6775 6.85263 58.4217 7.03694 58.1643 7.18311C57.9069 7.32928 57.6161 7.40237 57.292 7.40237C56.8154 7.40237 56.4468 7.25778 56.1862 6.96862C55.9288 6.67627 55.8001 6.3029 55.8001 5.84849ZM56.6485 5.82942C56.6485 6.12813 56.7232 6.34262 56.8726 6.4729C57.0219 6.60319 57.2459 6.66833 57.5446 6.66833C57.6686 6.66833 57.7909 6.64608 57.9117 6.6016C58.0324 6.55393 58.1516 6.49673 58.2691 6.43C58.3867 6.36009 58.4995 6.28224 58.6076 6.19644C58.7188 6.10747 58.8268 6.02167 58.9317 5.93905V4.71883L58.1309 4.79509C57.5875 4.84276 57.2046 4.94921 56.9822 5.11445C56.7598 5.27651 56.6485 5.51484 56.6485 5.82942Z" fill="black"/>
<path d="M63.722 4.7665C63.722 3.89582 63.9063 3.23645 64.2749 2.7884C64.6435 2.33717 65.1869 2.11156 65.9051 2.11156C66.7281 2.11156 67.3144 2.41661 67.6639 3.02672L66.9918 3.43664C66.8679 3.24281 66.7217 3.09187 66.5533 2.98383C66.3881 2.87579 66.1688 2.82177 65.8955 2.82177C65.4157 2.82177 65.0741 2.99654 64.8708 3.34608C64.6706 3.69245 64.5705 4.17227 64.5705 4.78556C64.5705 5.25268 64.6181 5.61652 64.7135 5.87709C64.8088 6.13766 64.9565 6.33785 65.1567 6.47767C65.3601 6.61749 65.6175 6.68739 65.9289 6.68739C66.1958 6.68739 66.4135 6.63814 66.5819 6.53963C66.7503 6.43795 66.9092 6.28224 67.0586 6.07252L67.7306 6.48243C67.5749 6.74936 67.3589 6.97021 67.0824 7.14498C66.8059 7.31657 66.4246 7.40237 65.9384 7.40237C65.2044 7.40237 64.6515 7.18152 64.2797 6.73983C63.9079 6.29495 63.722 5.63718 63.722 4.7665Z" fill="black"/>
<path d="M68.5934 5.84849C68.5934 5.5053 68.6601 5.2209 68.7936 4.99529C68.9302 4.7665 69.1256 4.58696 69.3799 4.45667C69.6372 4.32321 70.009 4.22788 70.4952 4.17068L71.725 4.06105V3.81796C71.725 3.43347 71.6169 3.17131 71.4008 3.03149C71.1879 2.89167 70.8924 2.82177 70.5143 2.82177C70.1774 2.82177 69.9169 2.88055 69.7326 2.99813C69.5514 3.1157 69.4212 3.24281 69.3417 3.37945L68.6696 2.96953C68.8222 2.69307 69.0541 2.48176 69.3656 2.33558C69.6801 2.18623 70.0694 2.11156 70.5333 2.11156C71.2515 2.11156 71.7663 2.24184 72.0777 2.50241C72.3891 2.76298 72.5448 3.21421 72.5448 3.8561V7.25461H71.725V6.6302C71.4708 6.85263 71.215 7.03694 70.9576 7.18311C70.7002 7.32928 70.4094 7.40237 70.0853 7.40237C69.6086 7.40237 69.24 7.25778 68.9795 6.96862C68.7221 6.67627 68.5934 6.3029 68.5934 5.84849ZM69.4418 5.82942C69.4418 6.12813 69.5165 6.34262 69.6658 6.4729C69.8152 6.60319 70.0392 6.66833 70.3379 6.66833C70.4618 6.66833 70.5842 6.64608 70.7049 6.6016C70.8257 6.55393 70.9449 6.49673 71.0624 6.43C71.18 6.36009 71.2928 6.28224 71.4008 6.19644C71.5121 6.10747 71.6201 6.02167 71.725 5.93905V4.71883L70.9242 4.79509C70.3808 4.84276 69.9979 4.94921 69.7755 5.11445C69.553 5.27651 69.4418 5.51484 69.4418 5.82942Z" fill="black"/>
<path d="M74.1273 7.25461V2.25455H74.8995V6.20121L77.3494 2.25455H78.1788V7.25461H77.4066V3.38898L74.9948 7.25461H74.1273ZM74.623 0.38132H75.3761C75.4142 0.616467 75.5032 0.792827 75.643 0.910401C75.7828 1.02797 75.9576 1.08676 76.1673 1.08676C76.447 1.08676 76.6456 1.02797 76.7632 0.910401C76.8839 0.792827 76.9618 0.616467 76.9967 0.38132H77.745C77.745 0.610112 77.6799 0.819837 77.5496 1.0105C77.4225 1.19798 77.2414 1.34256 77.0062 1.44425C76.7743 1.54276 76.4978 1.59201 76.1769 1.59201C75.8686 1.59201 75.5969 1.54117 75.3618 1.43948C75.1298 1.3378 74.9487 1.19162 74.8184 1.00096C74.6881 0.810304 74.623 0.603756 74.623 0.38132Z" fill="black"/>
<path d="M79.0654 2.91233V2.25455H83.0692V2.91233H81.4677V7.25461H80.6669V2.91233H79.0654Z" fill="black"/>
<path d="M83.665 5.84849C83.665 5.5053 83.7318 5.2209 83.8652 4.99529C84.0019 4.7665 84.1973 4.58696 84.4515 4.45667C84.7089 4.32321 85.0807 4.22788 85.5669 4.17068L86.7966 4.06105V3.81796C86.7966 3.43347 86.6886 3.17131 86.4725 3.03149C86.2596 2.89167 85.9641 2.82177 85.5859 2.82177C85.2491 2.82177 84.9885 2.88055 84.8042 2.99813C84.6231 3.1157 84.4928 3.24281 84.4134 3.37945L83.7413 2.96953C83.8938 2.69307 84.1258 2.48176 84.4372 2.33558C84.7518 2.18623 85.1411 2.11156 85.605 2.11156C86.3232 2.11156 86.8379 2.24184 87.1493 2.50241C87.4608 2.76298 87.6165 3.21421 87.6165 3.8561V7.25461H86.7966V6.6302C86.5424 6.85263 86.2866 7.03694 86.0292 7.18311C85.7718 7.32928 85.4811 7.40237 85.157 7.40237C84.6803 7.40237 84.3117 7.25778 84.0511 6.96862C83.7937 6.67627 83.665 6.3029 83.665 5.84849ZM84.5135 5.82942C84.5135 6.12813 84.5882 6.34262 84.7375 6.4729C84.8868 6.60319 85.1109 6.66833 85.4096 6.66833C85.5335 6.66833 85.6558 6.64608 85.7766 6.6016C85.8974 6.55393 86.0165 6.49673 86.1341 6.43C86.2517 6.36009 86.3645 6.28224 86.4725 6.19644C86.5837 6.10747 86.6918 6.02167 86.7966 5.93905V4.71883L85.9959 4.79509C85.4525 4.84276 85.0696 4.94921 84.8471 5.11445C84.6247 5.27651 84.5135 5.51484 84.5135 5.82942Z" fill="black"/>
</g>
</svg>
