<svg width="129" height="78" viewBox="0 0 129 78" fill="none" xmlns="http://www.w3.org/2000/svg">
<path d="M110.5 66L93 56.5L110.5 47L128 56.5L110.5 66Z" fill="#ECEFF5"/>
<path d="M121.5 47.1429L114 43.0714L121.5 39L129 43.0714L121.5 47.1429Z" fill="#ECEFF5"/>
<path d="M11.5 77.1429L4 73.0714L11.5 69L19 73.0714L11.5 77.1429Z" fill="#ECEFF5"/>
<path d="M67.5 8.14286L60 4.07143L67.5 0L75 4.07143L67.5 8.14286Z" fill="#ECEFF5"/>
<path d="M28.775 31.1375L34.8944 33.6873C39.9728 35.8032 45.8066 33.4197 47.9502 28.3529L51.0875 20.9375L61.9255 25.106C65.0713 26.3159 68.5962 24.698 69.7298 21.5239L70.85 18.3875L40.25 6.275L31.325 10.7375L15.3875 5L2 38.7875L17.9375 45.1625L30.05 13.925M33.875 39.425L22.7673 47.8968C20.1236 49.9132 19.4165 53.5938 21.125 56.4463V56.4463M88.0625 42.6125L74.675 13.2875L89.3375 6.9125L104 39.425L89.3375 45.8L83.6 53.45L38.8692 69.8615C36.1046 70.8758 33.0148 70.4248 30.6556 68.6625V68.6625M26.225 63.3313L51.0875 48.35M26.225 63.3313L21.125 56.4463M26.225 63.3313L30.6556 68.6625M21.125 56.4463L42.8 43.25M30.6556 68.6625L53.9125 55.9125" stroke="black" stroke-width="2"/>
</svg>
