<svg width="126" height="99" viewBox="0 0 126 99" fill="none" xmlns="http://www.w3.org/2000/svg">
<path d="M107.5 99L90 89.5L107.5 80L125 89.5L107.5 99Z" fill="#ECEFF5"/>
<path d="M118.5 80.1429L111 76.0714L118.5 72L126 76.0714L118.5 80.1429Z" fill="#ECEFF5"/>
<path d="M7.5 90.1429L0 86.0714L7.5 82L15 86.0714L7.5 90.1429Z" fill="#ECEFF5"/>
<path d="M20 84L15 81.5L20 79L25 81.5L20 84Z" fill="#ECEFF5"/>
<path d="M80.5 88.1429L73 84.0714L80.5 80L88 84.0714L80.5 88.1429Z" fill="#ECEFF5"/>
<path d="M56 10V75M56 10V10C70.67 3.62172 87.33 3.62172 102 10V10V27M56 10V10C41.33 3.62172 24.67 3.62172 10 10V10V75V75C24.67 68.6217 41.33 68.6217 56 75V75M56 75V75C70.67 68.6217 87.33 68.6217 102 75V75V50M110 47L121.5 58.5M113 38.5V38.5C113 44.8513 107.851 50 101.5 50V50C95.1487 50 90 44.8513 90 38.5V38.5C90 32.1487 95.1487 27 101.5 27V27C107.851 27 113 32.1487 113 38.5Z" stroke="black" stroke-width="2"/>
</svg>
