<svg width="19" height="21" viewBox="0 0 19 21" fill="none" xmlns="http://www.w3.org/2000/svg">
<path fill-rule="evenodd" clip-rule="evenodd" d="M0.4375 9.82053C0.4375 4.91457 4.41457 0.9375 9.32053 0.9375C14.2265 0.9375 18.2036 4.91457 18.2036 9.82053V11.4375C18.2036 13.6466 16.4127 15.4375 14.2036 15.4375H9.87407C7.66494 15.4375 5.87407 13.6466 5.87407 11.4375V9.38396C5.87407 7.48053 7.41711 5.9375 9.32053 5.9375C11.224 5.9375 12.767 7.48053 12.767 9.38396V13.4375H14.2036C15.3081 13.4375 16.2036 12.5421 16.2036 11.4375V9.82053C16.2036 6.01914 13.1219 2.9375 9.32053 2.9375C5.51914 2.9375 2.4375 6.01914 2.4375 9.82053V11.4375C2.4375 15.3035 5.57151 18.4375 9.4375 18.4375H18.2909V20.4375H9.4375C4.46694 20.4375 0.4375 16.4081 0.4375 11.4375V9.82053ZM10.767 13.4375V9.38396C10.767 8.5851 10.1194 7.9375 9.32053 7.9375C8.52168 7.9375 7.87407 8.5851 7.87407 9.38396V11.4375C7.87407 12.5421 8.76951 13.4375 9.87407 13.4375H10.767Z" fill="#1E428F"/>
</svg>
