<svg width="19" height="20" viewBox="0 0 19 20" fill="none" xmlns="http://www.w3.org/2000/svg">
<path fill-rule="evenodd" clip-rule="evenodd" d="M1.8011 1.32479C2.56645 0.620904 3.7435 0.620902 4.50884 1.32479L8.43782 4.93826L2.92143 10.0117C4.05334 12.9224 6.35765 15.2799 9.25341 16.4709L14.5718 11.5796L18.254 14.9662C19.1155 15.7585 19.1155 17.118 18.254 17.9103L17.5161 18.589C17.3156 18.7734 17.0666 18.8969 16.7984 18.9448L15.9333 19.0995C6.44132 20.797 -1.68529 12.2197 0.521453 2.83313C0.586237 2.55756 0.732261 2.3078 0.940615 2.11618L1.8011 1.32479ZM11.4918 17.1295C12.7922 17.3685 14.1689 17.3833 15.5812 17.1308L16.2838 17.0051L16.9001 16.4383L14.5718 14.2969L11.4918 17.1295ZM2.32025 7.84733L5.48333 4.93826L3.15497 2.79688L2.42887 3.46467C2.09848 4.97023 2.07938 6.44917 2.32025 7.84733Z" fill="#1E428F"/>
</svg>
