<svg width="32" height="32" viewBox="0 0 32 32" fill="none" xmlns="http://www.w3.org/2000/svg">
<path fill-rule="evenodd" clip-rule="evenodd" d="M7 14.883C7 9.97707 10.9771 6 15.883 6C20.789 6 24.7661 9.97707 24.7661 14.883V16.5C24.7661 18.7091 22.9752 20.5 20.7661 20.5H16.4366C14.2274 20.5 12.4366 18.7091 12.4366 16.5V14.4465C12.4366 12.543 13.9796 11 15.883 11C17.7865 11 19.3295 12.543 19.3295 14.4465V18.5H20.7661C21.8706 18.5 22.7661 17.6046 22.7661 16.5V14.883C22.7661 11.0816 19.6844 8 15.883 8C12.0816 8 9 11.0816 9 14.883V16.5C9 20.366 12.134 23.5 16 23.5H24.8534V25.5H16C11.0294 25.5 7 21.4706 7 16.5V14.883ZM17.3295 18.5V14.4465C17.3295 13.6476 16.6819 13 15.883 13C15.0842 13 14.4366 13.6476 14.4366 14.4465V16.5C14.4366 17.6046 15.332 18.5 16.4366 18.5H17.3295Z" fill="#1E428F"/>
</svg>
