<svg width="32" height="32" viewBox="0 0 32 32" fill="none" xmlns="http://www.w3.org/2000/svg">
<path fill-rule="evenodd" clip-rule="evenodd" d="M15.5239 8C12.4731 8 10 10.4731 10 13.5239V13.6369C10 14.935 10.448 16.1934 11.2684 17.1994L15.5239 22.4177L19.7794 17.1994C20.5997 16.1934 21.0478 14.935 21.0478 13.6369V13.5239C21.0478 10.4731 18.5746 8 15.5239 8ZM8 13.5239C8 9.36856 11.3686 6 15.5239 6C19.6792 6 23.0478 9.36856 23.0478 13.5239V13.6369C23.0478 15.3956 22.4408 17.1004 21.3293 18.4633L15.5239 25.5823L9.71846 18.4633C8.60699 17.1004 8 15.3956 8 13.6369V13.5239Z" fill="#1E428F"/>
</svg>
