<svg width="32" height="32" viewBox="0 0 32 32" fill="none" xmlns="http://www.w3.org/2000/svg">
<path fill-rule="evenodd" clip-rule="evenodd" d="M5 8C5 6.89543 5.89543 6 7 6H9.59501C10.6225 6 11.4828 6.77859 11.5851 7.80099L11.9374 11.324C12.0087 12.0371 11.693 12.7339 11.1098 13.1505L8.50763 15.0092C10.3237 19.0168 13.6491 22.1948 17.7585 23.8177L19.8104 20.9449C20.2679 20.3045 21.0584 19.9919 21.8301 20.1462L25.3922 20.8586C26.3271 21.0456 27 21.8664 27 22.8198V25C27 26.1046 26.1046 27 25 27H24C13.5066 27 5 18.4934 5 8ZM19.7536 24.4654C21.1109 24.8144 22.5338 25 24 25H25V22.8198L21.4379 22.1074L19.7536 24.4654ZM7.77118 13.0774L9.94731 11.523L9.59501 8H7C7 9.76854 7.27006 11.474 7.77118 13.0774Z" fill="#1E428F"/>
</svg>
