<svg width="32" height="32" viewBox="0 0 32 32" fill="none" xmlns="http://www.w3.org/2000/svg">
<path fill-rule="evenodd" clip-rule="evenodd" d="M7 6C5.89543 6 5 6.89543 5 8C5 18.4934 13.5066 27 24 27H25C26.1046 27 27 26.1046 27 25V22.8198C27 21.8664 26.3271 21.0456 25.3922 20.8586L21.8301 20.1462C21.0584 19.9919 20.2679 20.3045 19.8104 20.9449L17.7585 23.8177C13.6491 22.1948 10.3237 19.0168 8.50763 15.0092L11.1098 13.1505C11.693 12.7339 12.0087 12.0371 11.9374 11.324L11.5851 7.80099C11.4828 6.77859 10.6225 6 9.59501 6H7ZM24 25C22.5338 25 21.1109 24.8144 19.7536 24.4654L21.4379 22.1074L25 22.8198V25H24ZM9.94731 11.523L7.77118 13.0774C7.27006 11.474 7 9.76854 7 8H9.59501L9.94731 11.523ZM25.2929 6.29297L18 13.5859V10.0001H16V17.0001H23V15.0001H19.4142L26.7071 7.70718L25.2929 6.29297Z" fill="#1E428F"/>
</svg>
