<svg width="7" height="12" viewBox="0 0 7 12" fill="none" xmlns="http://www.w3.org/2000/svg">
<path d="M0.425781 1.73245C0.598448 1.58779 0.785115 1.45245 0.985781 1.32645C1.19111 1.20045 1.41045 1.09079 1.64378 0.997454C1.87711 0.899454 2.12678 0.824787 2.39278 0.773454C2.66345 0.717454 2.95511 0.689453 3.26778 0.689453C3.70645 0.689453 4.10078 0.747787 4.45078 0.864453C4.80545 0.98112 5.10645 1.14912 5.35378 1.36845C5.60111 1.58312 5.79011 1.84445 5.92078 2.15245C6.05611 2.45579 6.12378 2.79412 6.12378 3.16745C6.12378 3.52212 6.07478 3.83012 5.97678 4.09145C5.87878 4.34812 5.75512 4.57212 5.60578 4.76345C5.45645 4.95479 5.29078 5.12045 5.10878 5.26045C4.93145 5.40045 4.76111 5.53112 4.59778 5.65245C4.43911 5.76912 4.29911 5.88579 4.17778 6.00245C4.06111 6.11912 3.98645 6.24979 3.95378 6.39445L3.75778 7.37445H2.27378L2.11978 6.24745C2.08245 6.01879 2.10578 5.82045 2.18978 5.65245C2.27378 5.47979 2.38811 5.32579 2.53278 5.19045C2.68211 5.05045 2.84778 4.91979 3.02978 4.79845C3.21178 4.67245 3.38211 4.53945 3.54078 4.39945C3.69945 4.25479 3.83245 4.09612 3.93978 3.92345C4.05178 3.74612 4.10778 3.53612 4.10778 3.29345C4.10778 3.01345 4.01445 2.79179 3.82778 2.62845C3.64578 2.46045 3.39378 2.37645 3.07178 2.37645C2.82445 2.37645 2.61678 2.40212 2.44878 2.45345C2.28545 2.50479 2.14311 2.56312 2.02178 2.62845C1.90511 2.68912 1.80245 2.74512 1.71378 2.79645C1.62511 2.84779 1.53645 2.87345 1.44778 2.87345C1.24711 2.87345 1.09778 2.78712 0.999781 2.61445L0.425781 1.73245ZM1.71378 9.90145C1.71378 9.73345 1.74411 9.57712 1.80478 9.43245C1.87011 9.28779 1.95645 9.16179 2.06378 9.05445C2.17578 8.94712 2.30645 8.86312 2.45578 8.80245C2.60511 8.73712 2.76845 8.70445 2.94578 8.70445C3.11845 8.70445 3.27945 8.73712 3.42878 8.80245C3.57811 8.86312 3.70878 8.94712 3.82078 9.05445C3.93278 9.16179 4.01911 9.28779 4.07978 9.43245C4.14511 9.57712 4.17778 9.73345 4.17778 9.90145C4.17778 10.0695 4.14511 10.2281 4.07978 10.3775C4.01911 10.5221 3.93278 10.6481 3.82078 10.7555C3.70878 10.8628 3.57811 10.9468 3.42878 11.0075C3.27945 11.0681 3.11845 11.0985 2.94578 11.0985C2.76845 11.0985 2.60511 11.0681 2.45578 11.0075C2.30645 10.9468 2.17578 10.8628 2.06378 10.7555C1.95645 10.6481 1.87011 10.5221 1.80478 10.3775C1.74411 10.2281 1.71378 10.0695 1.71378 9.90145Z" fill="#1E428F"/>
</svg>
