<svg width="32" height="32" viewBox="0 0 32 32" fill="none" xmlns="http://www.w3.org/2000/svg">
<path fill-rule="evenodd" clip-rule="evenodd" d="M13.5 7C9.91015 7 7 9.91015 7 13.5C7 17.0899 9.91015 20 13.5 20C17.0899 20 20 17.0899 20 13.5C20 9.91015 17.0899 7 13.5 7ZM5 13.5C5 8.80558 8.80558 5 13.5 5C18.1944 5 22 8.80558 22 13.5C22 15.4869 21.3183 17.3145 20.176 18.7618L25.7071 24.2929L24.2929 25.7071L18.7618 20.176C17.3145 21.3183 15.4869 22 13.5 22C8.80558 22 5 18.1944 5 13.5Z" fill="#1E428F"/>
</svg>
