<svg width="20" height="20" viewBox="0 0 20 20" fill="none" xmlns="http://www.w3.org/2000/svg">
<path d="M18.2916 17.9794V17.9794C18.119 18.5835 17.5668 19 16.9385 19H3.06147C2.43317 19 1.881 18.5835 1.70839 17.9794V17.9794C0.852245 14.9829 3.10222 12 6.21864 12H13.7814C16.8978 12 19.1478 14.9829 18.2916 17.9794ZM13.1578 9.58809L14.0529 6.3062C14.7817 3.63386 12.7699 1 10 1V1C7.23005 1 5.21832 3.63386 5.94715 6.3062L6.84221 9.58809C7.23057 11.0121 8.52398 12 10 12V12C11.476 12 12.7694 11.0121 13.1578 9.58809Z" stroke="#1E428F" stroke-width="2"/>
</svg>
