<svg width="32" height="32" viewBox="0 0 32 32" fill="none" xmlns="http://www.w3.org/2000/svg">
<path fill-rule="evenodd" clip-rule="evenodd" d="M16 8C13.8894 8 12.3565 10.0069 12.9119 12.0431L13.8069 15.325C14.0766 16.3139 14.9749 17 16 17C17.025 17 17.9233 16.3139 18.193 15.325L19.0881 12.0431C19.6434 10.0069 18.1105 8 16 8ZM19.6188 17C19.8383 16.6506 20.0097 16.265 20.1225 15.8512L21.0176 12.5693C21.9199 9.26083 19.4293 6 16 6C12.5706 6 10.08 9.26083 10.9823 12.5693L11.8774 15.8512C11.9903 16.265 12.1616 16.6506 12.3812 17H12.2186C8.4378 17 5.70817 20.6188 6.74683 24.2541C7.0421 25.2875 7.98666 26 9.06143 26H22.9385C24.0133 26 24.9578 25.2875 25.2531 24.2541C26.2918 20.6188 23.5621 17 19.7813 17H19.6188ZM12.2186 19C9.76656 19 7.99625 21.347 8.66988 23.7047C8.71983 23.8795 8.87962 24 9.06143 24H22.9385C23.1203 24 23.2801 23.8795 23.33 23.7047C24.0037 21.347 22.2334 19 19.7813 19H12.2186Z" fill="#1E428F"/>
</svg>
