<svg width="81" height="84" viewBox="0 0 81 84" fill="none" xmlns="http://www.w3.org/2000/svg">
<path d="M63.5 84L46 74.5L63.5 65L81 74.5L63.5 84Z" fill="#ECEFF5"/>
<path d="M70.5 62.1429L63 58.0714L70.5 54L78 58.0714L70.5 62.1429Z" fill="#ECEFF5"/>
<path d="M7.5 76.1429L0 72.0714L7.5 68L15 72.0714L7.5 76.1429Z" fill="#ECEFF5"/>
<path d="M4 6.30281C4 5.0489 5.31075 4.22618 6.43996 4.77132C13.3684 8.1161 21.5224 7.70731 28.0816 3.68634L32 1.28427L35.9184 3.68634C42.4776 7.70731 50.6316 8.1161 57.56 4.77132C58.6893 4.22618 60 5.0489 60 6.30281V42.0302C60 53.0627 53.74 63.1397 43.8495 68.0281L33.7724 73.0088C32.6553 73.5609 31.3447 73.5609 30.2277 73.0088L20.1505 68.0281C10.26 63.1397 4 53.0628 4 42.0302V6.30281Z" stroke="#383838" stroke-width="2"/>
<path fill-rule="evenodd" clip-rule="evenodd" d="M9 40.1043V11.3047C10.9261 11.7597 12.9349 12.0004 15 12.0004V40.1043C15 49.9855 21.6079 58.5653 31 61.1794V67.3566C18.1831 64.594 9 53.2535 9 40.1043Z" fill="#ECEFF5"/>
</svg>
